M48
; DRILL file {KiCad 9.0.2} date 2025-06-02T23:42:51-0400
; FORMAT={-:-/ absolute / metric / decimal}
; #@! TF.CreationDate,2025-06-02T23:42:51-04:00
; #@! TF.GenerationSoftware,Kicad,Pcbnew,9.0.2
; #@! TF.FileFunction,NonPlated,1,2,NPTH
FMAT,2
METRIC
; #@! TA.AperFunction,NonPlated,NPTH,ComponentDrill
T1C1.500
; #@! TA.AperFunction,NonPlated,NPTH,ComponentDrill
T2C1.702
; #@! TA.AperFunction,NonPlated,NPTH,ComponentDrill
T3C1.800
; #@! TA.AperFunction,NonPlated,NPTH,ComponentDrill
T4C3.048
; #@! TA.AperFunction,NonPlated,NPTH,ComponentDrill
T5C3.988
%
G90
G05
T1
X195.09Y-14.964
X199.94Y-14.964
T2
X-95.25Y-12.7
X-95.25Y-31.75
X-95.25Y-50.8
X-95.25Y-69.85
X-85.09Y-12.7
X-85.09Y-31.75
X-85.09Y-50.8
X-85.09Y-69.85
X-80.93Y-88.977
X-76.2Y-12.7
X-76.2Y-31.75
X-76.2Y-50.8
X-76.2Y-69.85
X-70.77Y-88.977
X-66.04Y-12.7
X-66.04Y-31.75
X-66.04Y-50.8
X-66.04Y-69.85
X-61.85Y-88.977
X-57.15Y-12.7
X-57.15Y-31.75
X-57.15Y-50.8
X-57.15Y-69.85
X-51.69Y-88.977
X-46.99Y-12.7
X-46.99Y-31.75
X-46.99Y-50.8
X-46.99Y-69.85
X-42.85Y-88.977
X-38.1Y-12.7
X-38.1Y-31.75
X-38.1Y-50.8
X-38.1Y-69.85
X-32.69Y-88.977
X-27.94Y-12.7
X-27.94Y-31.75
X-27.94Y-50.8
X-27.94Y-69.85
X-19.05Y-12.7
X-19.05Y-31.75
X-19.05Y-50.8
X-19.05Y-69.85
X-8.89Y-12.7
X-8.89Y-31.75
X-8.89Y-50.8
X-8.89Y-69.85
X0.0Y-12.7
X0.0Y-31.75
X0.0Y-50.8
X0.0Y-69.85
X10.16Y-12.7
X10.16Y-31.75
X10.16Y-50.8
X10.16Y-69.85
X19.05Y-12.7
X19.05Y-31.75
X19.05Y-50.8
X19.05Y-69.85
X26.163Y-88.922
X29.21Y-12.7
X29.21Y-31.75
X29.21Y-50.8
X29.21Y-69.85
X36.323Y-88.922
X38.1Y-12.7
X38.1Y-31.75
X38.1Y-50.8
X38.1Y-69.85
X48.26Y-12.7
X48.26Y-31.75
X48.26Y-50.8
X48.26Y-69.85
X57.15Y-12.7
X57.15Y-31.75
X57.15Y-50.8
X57.15Y-69.85
X67.31Y-12.7
X67.31Y-31.75
X67.31Y-50.8
X67.31Y-69.85
X76.2Y-12.7
X76.2Y-31.75
X76.2Y-50.8
X76.2Y-69.85
X86.36Y-12.7
X86.36Y-31.75
X86.36Y-50.8
X86.36Y-69.85
X95.25Y-12.7
X95.25Y-31.75
X95.25Y-50.8
X95.25Y-69.85
X95.25Y-88.9
X105.41Y-12.7
X105.41Y-31.75
X105.41Y-50.8
X105.41Y-69.85
X105.41Y-88.9
X114.3Y-12.7
X114.3Y-31.75
X114.3Y-50.8
X114.3Y-69.85
X114.3Y-88.9
X124.46Y-12.7
X124.46Y-31.75
X124.46Y-50.8
X124.46Y-69.85
X124.46Y-88.9
X133.35Y-12.7
X133.35Y-31.75
X133.35Y-50.8
X133.35Y-69.85
X133.35Y-88.9
X143.51Y-12.7
X143.51Y-31.75
X143.51Y-50.8
X143.51Y-69.85
X143.51Y-88.9
X152.4Y-12.7
X152.4Y-31.75
X152.4Y-50.8
X152.4Y-69.85
X152.4Y-88.9
X162.56Y-12.7
X162.56Y-31.75
X162.56Y-50.8
X162.56Y-69.85
X162.56Y-88.9
X171.45Y-12.7
X171.45Y-31.75
X171.45Y-50.8
X171.45Y-69.85
X171.45Y-88.9
X181.61Y-12.7
X181.61Y-31.75
X181.61Y-50.8
X181.61Y-69.85
X181.61Y-88.9
T3
X194.79Y-11.934
X200.24Y-11.934
T4
X-18.795Y-81.938
X81.281Y-81.938
T5
X-90.17Y-12.7
X-90.17Y-31.75
X-90.17Y-50.8
X-90.17Y-69.85
X-75.85Y-88.977
X-71.12Y-12.7
X-71.12Y-31.75
X-71.12Y-50.8
X-71.12Y-69.85
X-56.77Y-88.977
X-52.07Y-12.7
X-52.07Y-31.75
X-52.07Y-50.8
X-52.07Y-69.85
X-37.77Y-88.977
X-33.02Y-12.7
X-33.02Y-31.75
X-33.02Y-50.8
X-33.02Y-69.85
X-18.795Y-97.177
X-13.97Y-12.7
X-13.97Y-31.75
X-13.97Y-50.8
X-13.97Y-69.85
X5.08Y-12.7
X5.08Y-31.75
X5.08Y-50.8
X5.08Y-69.85
X24.13Y-12.7
X24.13Y-31.75
X24.13Y-50.8
X24.13Y-69.85
X31.243Y-88.922
X43.18Y-12.7
X43.18Y-31.75
X43.18Y-50.8
X43.18Y-69.85
X62.23Y-12.7
X62.23Y-31.75
X62.23Y-50.8
X62.23Y-69.85
X81.28Y-12.7
X81.28Y-31.75
X81.28Y-50.8
X81.28Y-69.85
X81.281Y-97.177
X100.33Y-12.7
X100.33Y-31.75
X100.33Y-50.8
X100.33Y-69.85
X100.33Y-88.9
X119.38Y-12.7
X119.38Y-31.75
X119.38Y-50.8
X119.38Y-69.85
X119.38Y-88.9
X138.43Y-12.7
X138.43Y-31.75
X138.43Y-50.8
X138.43Y-69.85
X138.43Y-88.9
X157.48Y-12.7
X157.48Y-31.75
X157.48Y-50.8
X157.48Y-69.85
X157.48Y-88.9
X176.53Y-12.7
X176.53Y-31.75
X176.53Y-50.8
X176.53Y-69.85
X176.53Y-88.9
M30
