%TF.GenerationSoftware,KiCad,Pcbnew,9.0.2*%
%TF.CreationDate,2025-06-02T23:42:43-04:00*%
%TF.ProjectId,OrangeDeck Keyboard,4f72616e-6765-4446-9563-6b204b657962,rev?*%
%TF.SameCoordinates,Original*%
%TF.FileFunction,Paste,Bot*%
%TF.FilePolarity,Positive*%
%FSLAX46Y46*%
G04 Gerber Fmt 4.6, Leading zero omitted, Abs format (unit mm)*
G04 Created by KiCad (PCBNEW 9.0.2) date 2025-06-02 23:42:43*
%MOMM*%
%LPD*%
G01*
G04 APERTURE LIST*
%ADD10R,1.200000X1.200000*%
G04 APERTURE END LIST*
D10*
%TO.C,D6*%
X3750000Y-16968750D03*
X6900000Y-16968750D03*
%TD*%
%TO.C,D54*%
X60768750Y-74062500D03*
X63918750Y-74062500D03*
%TD*%
%TO.C,D4*%
X-34743750Y-16968750D03*
X-31593750Y-16968750D03*
%TD*%
%TO.C,D1*%
X-91500000Y-16968750D03*
X-88350000Y-16968750D03*
%TD*%
%TO.C,D40*%
X79500000Y-55031250D03*
X82650000Y-55031250D03*
%TD*%
%TO.C,D13*%
X136931250Y-16968750D03*
X140081250Y-16968750D03*
%TD*%
%TO.C,D32*%
X-72731250Y-55031250D03*
X-69581250Y-55031250D03*
%TD*%
%TO.C,D59*%
X156056250Y-74062500D03*
X159206250Y-74062500D03*
%TD*%
%TO.C,D56*%
X98737500Y-74062500D03*
X101887500Y-74062500D03*
%TD*%
%TO.C,D12*%
X117881250Y-16968750D03*
X121031250Y-16968750D03*
%TD*%
%TO.C,D8*%
X41852885Y-16968750D03*
X45002885Y-16968750D03*
%TD*%
%TO.C,D5*%
X-15618750Y-16968750D03*
X-12468750Y-16968750D03*
%TD*%
%TO.C,D37*%
X22771154Y-55031250D03*
X25921154Y-55031250D03*
%TD*%
%TO.C,D26*%
X98737500Y-36281250D03*
X101887500Y-36281250D03*
%TD*%
%TO.C,D73*%
X136931250Y-93093750D03*
X140081250Y-93093750D03*
%TD*%
%TO.C,D47*%
X-72731250Y-74062500D03*
X-69581250Y-74062500D03*
%TD*%
%TO.C,D7*%
X22771154Y-16968750D03*
X25921154Y-16968750D03*
%TD*%
%TO.C,D16*%
X-91500000Y-36281250D03*
X-88350000Y-36281250D03*
%TD*%
%TO.C,D27*%
X117881250Y-36281250D03*
X121031250Y-36281250D03*
%TD*%
%TO.C,D24*%
X60768750Y-36281250D03*
X63918750Y-36281250D03*
%TD*%
%TO.C,D22*%
X22771154Y-36281250D03*
X25921154Y-36281250D03*
%TD*%
%TO.C,D33*%
X-53700000Y-55031250D03*
X-50550000Y-55031250D03*
%TD*%
%TO.C,D15*%
X174750000Y-16968750D03*
X177900000Y-16968750D03*
%TD*%
%TO.C,D42*%
X117881250Y-55031250D03*
X121031250Y-55031250D03*
%TD*%
%TO.C,D58*%
X136931250Y-74062500D03*
X140081250Y-74062500D03*
%TD*%
%TO.C,D20*%
X-15618750Y-36281250D03*
X-12468750Y-36281250D03*
%TD*%
%TO.C,D34*%
X-34743750Y-55031250D03*
X-31593750Y-55031250D03*
%TD*%
%TO.C,D35*%
X-15618750Y-55031250D03*
X-12468750Y-55031250D03*
%TD*%
%TO.C,D2*%
X-72637500Y-16968750D03*
X-69487500Y-16968750D03*
%TD*%
%TO.C,D39*%
X60768750Y-55031250D03*
X63918750Y-55031250D03*
%TD*%
%TO.C,D29*%
X156056250Y-36281250D03*
X159206250Y-36281250D03*
%TD*%
%TO.C,D51*%
X3750000Y-74062500D03*
X6900000Y-74062500D03*
%TD*%
%TO.C,D21*%
X3750000Y-36281250D03*
X6900000Y-36281250D03*
%TD*%
%TO.C,D31*%
X-91500000Y-55031250D03*
X-88350000Y-55031250D03*
%TD*%
%TO.C,D10*%
X79500000Y-16968750D03*
X82650000Y-16968750D03*
%TD*%
%TO.C,D62*%
X-77343750Y-93187500D03*
X-74193750Y-93187500D03*
%TD*%
%TO.C,D45*%
X174750000Y-55031250D03*
X177900000Y-55031250D03*
%TD*%
%TO.C,D38*%
X41852885Y-55031250D03*
X45002885Y-55031250D03*
%TD*%
%TO.C,D52*%
X22771154Y-74062500D03*
X25921154Y-74062500D03*
%TD*%
%TO.C,D63*%
X-57937500Y-93093750D03*
X-54787500Y-93093750D03*
%TD*%
%TO.C,D41*%
X98737500Y-55031250D03*
X101887500Y-55031250D03*
%TD*%
%TO.C,D74*%
X156056250Y-93093750D03*
X159206250Y-93093750D03*
%TD*%
%TO.C,D30*%
X174750000Y-36281250D03*
X177900000Y-36281250D03*
%TD*%
%TO.C,D48*%
X-53700000Y-74062500D03*
X-50550000Y-74062500D03*
%TD*%
%TO.C,D17*%
X-72731250Y-36281250D03*
X-69581250Y-36281250D03*
%TD*%
%TO.C,D49*%
X-34743750Y-74062500D03*
X-31593750Y-74062500D03*
%TD*%
%TO.C,D75*%
X174750000Y-93093750D03*
X177900000Y-93093750D03*
%TD*%
%TO.C,D64*%
X-38793750Y-93000000D03*
X-35643750Y-93000000D03*
%TD*%
%TO.C,D46*%
X-91500000Y-74062500D03*
X-88350000Y-74062500D03*
%TD*%
%TO.C,D14*%
X156056250Y-16968750D03*
X159206250Y-16968750D03*
%TD*%
%TO.C,D55*%
X79500000Y-74062500D03*
X82650000Y-74062500D03*
%TD*%
%TO.C,D71*%
X98737500Y-93093750D03*
X101887500Y-93093750D03*
%TD*%
%TO.C,D44*%
X156056250Y-55031250D03*
X159206250Y-55031250D03*
%TD*%
%TO.C,D68*%
X29662500Y-93093750D03*
X32812500Y-93093750D03*
%TD*%
%TO.C,D43*%
X136931250Y-55031250D03*
X140081250Y-55031250D03*
%TD*%
%TO.C,D11*%
X98737500Y-16968750D03*
X101887500Y-16968750D03*
%TD*%
%TO.C,D60*%
X174750000Y-74062500D03*
X177900000Y-74062500D03*
%TD*%
%TO.C,D25*%
X79500000Y-36281250D03*
X82650000Y-36281250D03*
%TD*%
%TO.C,D57*%
X117881250Y-74062500D03*
X121031250Y-74062500D03*
%TD*%
%TO.C,D3*%
X-53700000Y-16968750D03*
X-50550000Y-16968750D03*
%TD*%
%TO.C,D50*%
X-15618750Y-74062500D03*
X-12468750Y-74062500D03*
%TD*%
%TO.C,D28*%
X136931250Y-36281250D03*
X140081250Y-36281250D03*
%TD*%
%TO.C,D18*%
X-53700000Y-36281250D03*
X-50550000Y-36281250D03*
%TD*%
%TO.C,D19*%
X-34743750Y-36281250D03*
X-31593750Y-36281250D03*
%TD*%
%TO.C,D36*%
X3750000Y-55031250D03*
X6900000Y-55031250D03*
%TD*%
%TO.C,D9*%
X60768750Y-16968750D03*
X63918750Y-16968750D03*
%TD*%
%TO.C,D72*%
X117881250Y-93093750D03*
X121031250Y-93093750D03*
%TD*%
%TO.C,D23*%
X41852885Y-36281250D03*
X45002885Y-36281250D03*
%TD*%
%TO.C,D53*%
X41852885Y-74062500D03*
X45002885Y-74062500D03*
%TD*%
M02*
