%TF.GenerationSoftware,KiCad,Pcbnew,9.0.2*%
%TF.CreationDate,2025-06-02T23:42:43-04:00*%
%TF.ProjectId,OrangeDeck Keyboard,4f72616e-6765-4446-9563-6b204b657962,rev?*%
%TF.SameCoordinates,Original*%
%TF.FileFunction,Copper,L2,Bot*%
%TF.FilePolarity,Positive*%
%FSLAX46Y46*%
G04 Gerber Fmt 4.6, Leading zero omitted, Abs format (unit mm)*
G04 Created by KiCad (PCBNEW 9.0.2) date 2025-06-02 23:42:43*
%MOMM*%
%LPD*%
G01*
G04 APERTURE LIST*
G04 Aperture macros list*
%AMHorizOval*
0 Thick line with rounded ends*
0 $1 width*
0 $2 $3 position (X,Y) of the first rounded end (center of the circle)*
0 $4 $5 position (X,Y) of the second rounded end (center of the circle)*
0 Add line between two ends*
20,1,$1,$2,$3,$4,$5,0*
0 Add two circle primitives to create the rounded ends*
1,1,$1,$2,$3*
1,1,$1,$4,$5*%
G04 Aperture macros list end*
%TA.AperFunction,ComponentPad*%
%ADD10HorizOval,2.500000X-0.604462X-0.948815X0.604462X0.948815X0*%
%TD*%
%TA.AperFunction,ComponentPad*%
%ADD11HorizOval,2.500000X-0.019724X-0.289328X0.019724X0.289328X0*%
%TD*%
%TA.AperFunction,ComponentPad*%
%ADD12R,1.600000X1.600000*%
%TD*%
%TA.AperFunction,SMDPad,CuDef*%
%ADD13R,2.500000X0.500000*%
%TD*%
%TA.AperFunction,SMDPad,CuDef*%
%ADD14R,1.200000X1.200000*%
%TD*%
%TA.AperFunction,ComponentPad*%
%ADD15C,1.600000*%
%TD*%
%TA.AperFunction,ComponentPad*%
%ADD16O,1.700000X1.700000*%
%TD*%
%TA.AperFunction,SMDPad,CuDef*%
%ADD17R,3.500000X1.700000*%
%TD*%
%TA.AperFunction,ComponentPad*%
%ADD18R,1.700000X1.700000*%
%TD*%
%TA.AperFunction,SMDPad,CuDef*%
%ADD19R,1.700000X3.500000*%
%TD*%
%TA.AperFunction,ViaPad*%
%ADD20C,0.600000*%
%TD*%
%TA.AperFunction,Conductor*%
%ADD21C,0.200000*%
%TD*%
G04 APERTURE END LIST*
D10*
%TO.P,K67,1*%
%TO.N,/Col11*%
X116125000Y-85380000D03*
D11*
%TO.P,K67,2*%
%TO.N,Net-(D72-A)*%
X121900000Y-84110000D03*
%TD*%
D10*
%TO.P,K23,1*%
%TO.N,/Col7*%
X39925000Y-28230000D03*
D11*
%TO.P,K23,2*%
%TO.N,Net-(D23-A)*%
X45700000Y-26960000D03*
%TD*%
D10*
%TO.P,K52,1*%
%TO.N,/Col6*%
X20875000Y-66330000D03*
D11*
%TO.P,K52,2*%
%TO.N,Net-(D52-A)*%
X26650000Y-65060000D03*
%TD*%
D10*
%TO.P,K47,1*%
%TO.N,/Col1*%
X-74375000Y-66330000D03*
D11*
%TO.P,K47,2*%
%TO.N,Net-(D47-A)*%
X-68600000Y-65060000D03*
%TD*%
D10*
%TO.P,K33,1*%
%TO.N,/Col2*%
X-55325000Y-47280000D03*
D11*
%TO.P,K33,2*%
%TO.N,Net-(D33-A)*%
X-49550000Y-46010000D03*
%TD*%
D10*
%TO.P,K1,1*%
%TO.N,/Col0*%
X-93425000Y-9180000D03*
D11*
%TO.P,K1,2*%
%TO.N,Net-(D1-A)*%
X-87650000Y-7910000D03*
%TD*%
D10*
%TO.P,K27,1*%
%TO.N,/Col11*%
X116125000Y-28230000D03*
D11*
%TO.P,K27,2*%
%TO.N,Net-(D27-A)*%
X121900000Y-26960000D03*
%TD*%
D10*
%TO.P,K60,1*%
%TO.N,/Col14*%
X173275000Y-66330000D03*
D11*
%TO.P,K60,2*%
%TO.N,Net-(D60-A)*%
X179050000Y-65060000D03*
%TD*%
D10*
%TO.P,K28,1*%
%TO.N,/Col12*%
X135175000Y-28230000D03*
D11*
%TO.P,K28,2*%
%TO.N,Net-(D28-A)*%
X140950000Y-26960000D03*
%TD*%
D10*
%TO.P,K36,1*%
%TO.N,/Col5*%
X1825000Y-47280000D03*
D11*
%TO.P,K36,2*%
%TO.N,Net-(D36-A)*%
X7600000Y-46010000D03*
%TD*%
D10*
%TO.P,K30,1*%
%TO.N,/Col14*%
X173275000Y-28230000D03*
D11*
%TO.P,K30,2*%
%TO.N,Net-(D30-A)*%
X179050000Y-26960000D03*
%TD*%
D10*
%TO.P,K45,1*%
%TO.N,/Col14*%
X173275000Y-47280000D03*
D11*
%TO.P,K45,2*%
%TO.N,Net-(D45-A)*%
X179050000Y-46010000D03*
%TD*%
D10*
%TO.P,K6,1*%
%TO.N,/Col5*%
X1825000Y-9180000D03*
D11*
%TO.P,K6,2*%
%TO.N,Net-(D6-A)*%
X7600000Y-7910000D03*
%TD*%
D10*
%TO.P,K69,1*%
%TO.N,/Col13*%
X154225000Y-85380000D03*
D11*
%TO.P,K69,2*%
%TO.N,Net-(D74-A)*%
X160000000Y-84110000D03*
%TD*%
D10*
%TO.P,K50,1*%
%TO.N,/Col4*%
X-17225000Y-66330000D03*
D11*
%TO.P,K50,2*%
%TO.N,Net-(D50-A)*%
X-11450000Y-65060000D03*
%TD*%
D10*
%TO.P,K65,1*%
%TO.N,/Col7*%
X27988250Y-85402500D03*
D11*
%TO.P,K65,2*%
%TO.N,Net-(D68-A)*%
X33763250Y-84132500D03*
%TD*%
D10*
%TO.P,K48,1*%
%TO.N,/Col2*%
X-55325000Y-66330000D03*
D11*
%TO.P,K48,2*%
%TO.N,Net-(D48-A)*%
X-49550000Y-65060000D03*
%TD*%
D10*
%TO.P,K5,1*%
%TO.N,/Col4*%
X-17225000Y-9180000D03*
D11*
%TO.P,K5,2*%
%TO.N,Net-(D5-A)*%
X-11450000Y-7910000D03*
%TD*%
D10*
%TO.P,K51,1*%
%TO.N,/Col5*%
X1825000Y-66330000D03*
D11*
%TO.P,K51,2*%
%TO.N,Net-(D51-A)*%
X7600000Y-65060000D03*
%TD*%
D10*
%TO.P,K35,1*%
%TO.N,/Col4*%
X-17225000Y-47280000D03*
D11*
%TO.P,K35,2*%
%TO.N,Net-(D35-A)*%
X-11450000Y-46010000D03*
%TD*%
D10*
%TO.P,K7,1*%
%TO.N,/Col6*%
X20875000Y-9180000D03*
D11*
%TO.P,K7,2*%
%TO.N,Net-(D7-A)*%
X26650000Y-7910000D03*
%TD*%
D10*
%TO.P,K46,1*%
%TO.N,/Col0*%
X-93425000Y-66330000D03*
D11*
%TO.P,K46,2*%
%TO.N,Net-(D46-A)*%
X-87650000Y-65060000D03*
%TD*%
D10*
%TO.P,K9,1*%
%TO.N,/Col8*%
X58975000Y-9180000D03*
D11*
%TO.P,K9,2*%
%TO.N,Net-(D9-A)*%
X64750000Y-7910000D03*
%TD*%
D10*
%TO.P,K11,1*%
%TO.N,/Col10*%
X97075000Y-9180000D03*
D11*
%TO.P,K11,2*%
%TO.N,Net-(D11-A)*%
X102850000Y-7910000D03*
%TD*%
D10*
%TO.P,K24,1*%
%TO.N,/Col8*%
X58975000Y-28230000D03*
D11*
%TO.P,K24,2*%
%TO.N,Net-(D24-A)*%
X64750000Y-26960000D03*
%TD*%
D10*
%TO.P,K54,1*%
%TO.N,/Col8*%
X58975000Y-66330000D03*
D11*
%TO.P,K54,2*%
%TO.N,Net-(D54-A)*%
X64750000Y-65060000D03*
%TD*%
D10*
%TO.P,K10,1*%
%TO.N,/Col9*%
X78025000Y-9180000D03*
D11*
%TO.P,K10,2*%
%TO.N,Net-(D10-A)*%
X83800000Y-7910000D03*
%TD*%
D10*
%TO.P,K39,1*%
%TO.N,/Col8*%
X58975000Y-47280000D03*
D11*
%TO.P,K39,2*%
%TO.N,Net-(D39-A)*%
X64750000Y-46010000D03*
%TD*%
D10*
%TO.P,K66,1*%
%TO.N,/Col10*%
X97075000Y-85380000D03*
D11*
%TO.P,K66,2*%
%TO.N,Net-(D71-A)*%
X102850000Y-84110000D03*
%TD*%
D10*
%TO.P,K18,1*%
%TO.N,/Col2*%
X-55325000Y-28230000D03*
D11*
%TO.P,K18,2*%
%TO.N,Net-(D18-A)*%
X-49550000Y-26960000D03*
%TD*%
D10*
%TO.P,K31,1*%
%TO.N,/Col0*%
X-93425000Y-47280000D03*
D11*
%TO.P,K31,2*%
%TO.N,Net-(D31-A)*%
X-87650000Y-46010000D03*
%TD*%
D10*
%TO.P,K37,1*%
%TO.N,/Col6*%
X20875000Y-47280000D03*
D11*
%TO.P,K37,2*%
%TO.N,Net-(D37-A)*%
X26650000Y-46010000D03*
%TD*%
D10*
%TO.P,K17,1*%
%TO.N,/Col1*%
X-74375000Y-28230000D03*
D11*
%TO.P,K17,2*%
%TO.N,Net-(D17-A)*%
X-68600000Y-26960000D03*
%TD*%
D10*
%TO.P,K68,1*%
%TO.N,/Col12*%
X135175000Y-85380000D03*
D11*
%TO.P,K68,2*%
%TO.N,Net-(D73-A)*%
X140950000Y-84110000D03*
%TD*%
D10*
%TO.P,K13,1*%
%TO.N,/Col12*%
X135175000Y-9180000D03*
D11*
%TO.P,K13,2*%
%TO.N,Net-(D13-A)*%
X140950000Y-7910000D03*
%TD*%
D10*
%TO.P,K26,1*%
%TO.N,/Col10*%
X97075000Y-28230000D03*
D11*
%TO.P,K26,2*%
%TO.N,Net-(D26-A)*%
X102850000Y-26960000D03*
%TD*%
D10*
%TO.P,K15,1*%
%TO.N,/Col14*%
X173275000Y-9180000D03*
D11*
%TO.P,K15,2*%
%TO.N,Net-(D15-A)*%
X179050000Y-7910000D03*
%TD*%
D10*
%TO.P,K63,1*%
%TO.N,/Col2*%
X-60025000Y-85457500D03*
D11*
%TO.P,K63,2*%
%TO.N,Net-(D63-A)*%
X-54250000Y-84187500D03*
%TD*%
D10*
%TO.P,K2,1*%
%TO.N,/Col1*%
X-74375000Y-9180000D03*
D11*
%TO.P,K2,2*%
%TO.N,Net-(D2-A)*%
X-68600000Y-7910000D03*
%TD*%
D10*
%TO.P,K25,1*%
%TO.N,/Col9*%
X78025000Y-28230000D03*
D11*
%TO.P,K25,2*%
%TO.N,Net-(D25-A)*%
X83800000Y-26960000D03*
%TD*%
D10*
%TO.P,K59,1*%
%TO.N,/Col13*%
X154225000Y-66330000D03*
D11*
%TO.P,K59,2*%
%TO.N,Net-(D59-A)*%
X160000000Y-65060000D03*
%TD*%
D10*
%TO.P,K38,1*%
%TO.N,/Col7*%
X39925000Y-47280000D03*
D11*
%TO.P,K38,2*%
%TO.N,Net-(D38-A)*%
X45700000Y-46010000D03*
%TD*%
D10*
%TO.P,K49,1*%
%TO.N,/Col3*%
X-36275000Y-66330000D03*
D11*
%TO.P,K49,2*%
%TO.N,Net-(D49-A)*%
X-30500000Y-65060000D03*
%TD*%
D10*
%TO.P,K16,1*%
%TO.N,/Col0*%
X-93425000Y-28230000D03*
D11*
%TO.P,K16,2*%
%TO.N,Net-(D16-A)*%
X-87650000Y-26960000D03*
%TD*%
D10*
%TO.P,K29,1*%
%TO.N,/Col13*%
X154225000Y-28230000D03*
D11*
%TO.P,K29,2*%
%TO.N,Net-(D29-A)*%
X160000000Y-26960000D03*
%TD*%
D10*
%TO.P,K42,1*%
%TO.N,/Col11*%
X116125000Y-47280000D03*
D11*
%TO.P,K42,2*%
%TO.N,Net-(D42-A)*%
X121900000Y-46010000D03*
%TD*%
D10*
%TO.P,K21,1*%
%TO.N,/Col5*%
X1825000Y-28230000D03*
D11*
%TO.P,K21,2*%
%TO.N,Net-(D21-A)*%
X7600000Y-26960000D03*
%TD*%
D10*
%TO.P,K57,1*%
%TO.N,/Col11*%
X116125000Y-66330000D03*
D11*
%TO.P,K57,2*%
%TO.N,Net-(D57-A)*%
X121900000Y-65060000D03*
%TD*%
D10*
%TO.P,K32,1*%
%TO.N,/Col1*%
X-74375000Y-47280000D03*
D11*
%TO.P,K32,2*%
%TO.N,Net-(D32-A)*%
X-68600000Y-46010000D03*
%TD*%
D10*
%TO.P,K12,1*%
%TO.N,/Col11*%
X116125000Y-9180000D03*
D11*
%TO.P,K12,2*%
%TO.N,Net-(D12-A)*%
X121900000Y-7910000D03*
%TD*%
D10*
%TO.P,K8,1*%
%TO.N,/Col7*%
X39925000Y-9180000D03*
D11*
%TO.P,K8,2*%
%TO.N,Net-(D8-A)*%
X45700000Y-7910000D03*
%TD*%
D10*
%TO.P,K14,1*%
%TO.N,/Col13*%
X154225000Y-9180000D03*
D11*
%TO.P,K14,2*%
%TO.N,Net-(D14-A)*%
X160000000Y-7910000D03*
%TD*%
D10*
%TO.P,K20,1*%
%TO.N,/Col4*%
X-17225000Y-28230000D03*
D11*
%TO.P,K20,2*%
%TO.N,Net-(D20-A)*%
X-11450000Y-26960000D03*
%TD*%
D10*
%TO.P,K62,1*%
%TO.N,/Col1*%
X-79105000Y-85457500D03*
D11*
%TO.P,K62,2*%
%TO.N,Net-(D62-A)*%
X-73330000Y-84187500D03*
%TD*%
D10*
%TO.P,K19,1*%
%TO.N,/Col3*%
X-36275000Y-28230000D03*
D11*
%TO.P,K19,2*%
%TO.N,Net-(D19-A)*%
X-30500000Y-26960000D03*
%TD*%
D10*
%TO.P,K3,1*%
%TO.N,/Col2*%
X-55325000Y-9180000D03*
D11*
%TO.P,K3,2*%
%TO.N,Net-(D3-A)*%
X-49550000Y-7910000D03*
%TD*%
D10*
%TO.P,K55,1*%
%TO.N,/Col9*%
X78025000Y-66330000D03*
D11*
%TO.P,K55,2*%
%TO.N,Net-(D55-A)*%
X83800000Y-65060000D03*
%TD*%
D10*
%TO.P,K70,1*%
%TO.N,/Col14*%
X173275000Y-85380000D03*
D11*
%TO.P,K70,2*%
%TO.N,Net-(D75-A)*%
X179050000Y-84110000D03*
%TD*%
D10*
%TO.P,K44,1*%
%TO.N,/Col13*%
X154225000Y-47280000D03*
D11*
%TO.P,K44,2*%
%TO.N,Net-(D44-A)*%
X160000000Y-46010000D03*
%TD*%
D10*
%TO.P,K43,1*%
%TO.N,/Col12*%
X135175000Y-47280000D03*
D11*
%TO.P,K43,2*%
%TO.N,Net-(D43-A)*%
X140950000Y-46010000D03*
%TD*%
D10*
%TO.P,K40,1*%
%TO.N,/Col9*%
X78025000Y-47280000D03*
D11*
%TO.P,K40,2*%
%TO.N,Net-(D40-A)*%
X83800000Y-46010000D03*
%TD*%
D10*
%TO.P,K4,1*%
%TO.N,/Col3*%
X-36275000Y-9180000D03*
D11*
%TO.P,K4,2*%
%TO.N,Net-(D4-A)*%
X-30500000Y-7910000D03*
%TD*%
D10*
%TO.P,K64,1*%
%TO.N,/Col3*%
X-41025000Y-85457500D03*
D11*
%TO.P,K64,2*%
%TO.N,Net-(D64-A)*%
X-35250000Y-84187500D03*
%TD*%
D10*
%TO.P,K41,1*%
%TO.N,/Col10*%
X97075000Y-47280000D03*
D11*
%TO.P,K41,2*%
%TO.N,Net-(D41-A)*%
X102850000Y-46010000D03*
%TD*%
D10*
%TO.P,K53,1*%
%TO.N,/Col7*%
X39925000Y-66330000D03*
D11*
%TO.P,K53,2*%
%TO.N,Net-(D53-A)*%
X45700000Y-65060000D03*
%TD*%
D10*
%TO.P,K56,1*%
%TO.N,/Col10*%
X97075000Y-66330000D03*
D11*
%TO.P,K56,2*%
%TO.N,Net-(D56-A)*%
X102850000Y-65060000D03*
%TD*%
D10*
%TO.P,K58,1*%
%TO.N,/Col12*%
X135175000Y-66330000D03*
D11*
%TO.P,K58,2*%
%TO.N,Net-(D58-A)*%
X140950000Y-65060000D03*
%TD*%
D10*
%TO.P,K34,1*%
%TO.N,/Col3*%
X-36275000Y-47280000D03*
D11*
%TO.P,K34,2*%
%TO.N,Net-(D34-A)*%
X-30500000Y-46010000D03*
%TD*%
D10*
%TO.P,K22,1*%
%TO.N,/Col6*%
X20875000Y-28230000D03*
D11*
%TO.P,K22,2*%
%TO.N,Net-(D22-A)*%
X26650000Y-26960000D03*
%TD*%
D12*
%TO.P,D6,1,K*%
%TO.N,/Row0*%
X1425000Y-16968750D03*
D13*
X2625000Y-16968750D03*
D14*
X3750000Y-16968750D03*
%TO.P,D6,2,A*%
%TO.N,Net-(D6-A)*%
X6900000Y-16968750D03*
D13*
X8025000Y-16968750D03*
D15*
X9225000Y-16968750D03*
%TD*%
D12*
%TO.P,D54,1,K*%
%TO.N,/Row3*%
X58443750Y-74062500D03*
D13*
X59643750Y-74062500D03*
D14*
X60768750Y-74062500D03*
%TO.P,D54,2,A*%
%TO.N,Net-(D54-A)*%
X63918750Y-74062500D03*
D13*
X65043750Y-74062500D03*
D15*
X66243750Y-74062500D03*
%TD*%
D12*
%TO.P,D4,1,K*%
%TO.N,/Row0*%
X-37068750Y-16968750D03*
D13*
X-35868750Y-16968750D03*
D14*
X-34743750Y-16968750D03*
%TO.P,D4,2,A*%
%TO.N,Net-(D4-A)*%
X-31593750Y-16968750D03*
D13*
X-30468750Y-16968750D03*
D15*
X-29268750Y-16968750D03*
%TD*%
D12*
%TO.P,D1,1,K*%
%TO.N,/Row0*%
X-93825000Y-16968750D03*
D13*
X-92625000Y-16968750D03*
D14*
X-91500000Y-16968750D03*
%TO.P,D1,2,A*%
%TO.N,Net-(D1-A)*%
X-88350000Y-16968750D03*
D13*
X-87225000Y-16968750D03*
D15*
X-86025000Y-16968750D03*
%TD*%
D12*
%TO.P,D40,1,K*%
%TO.N,/Row2*%
X77175000Y-55031250D03*
D13*
X78375000Y-55031250D03*
D14*
X79500000Y-55031250D03*
%TO.P,D40,2,A*%
%TO.N,Net-(D40-A)*%
X82650000Y-55031250D03*
D13*
X83775000Y-55031250D03*
D15*
X84975000Y-55031250D03*
%TD*%
D12*
%TO.P,D13,1,K*%
%TO.N,/Row0*%
X134606250Y-16968750D03*
D13*
X135806250Y-16968750D03*
D14*
X136931250Y-16968750D03*
%TO.P,D13,2,A*%
%TO.N,Net-(D13-A)*%
X140081250Y-16968750D03*
D13*
X141206250Y-16968750D03*
D15*
X142406250Y-16968750D03*
%TD*%
D12*
%TO.P,D32,1,K*%
%TO.N,/Row2*%
X-75056250Y-55031250D03*
D13*
X-73856250Y-55031250D03*
D14*
X-72731250Y-55031250D03*
%TO.P,D32,2,A*%
%TO.N,Net-(D32-A)*%
X-69581250Y-55031250D03*
D13*
X-68456250Y-55031250D03*
D15*
X-67256250Y-55031250D03*
%TD*%
D12*
%TO.P,D59,1,K*%
%TO.N,/Row3*%
X153731250Y-74062500D03*
D13*
X154931250Y-74062500D03*
D14*
X156056250Y-74062500D03*
%TO.P,D59,2,A*%
%TO.N,Net-(D59-A)*%
X159206250Y-74062500D03*
D13*
X160331250Y-74062500D03*
D15*
X161531250Y-74062500D03*
%TD*%
D12*
%TO.P,D56,1,K*%
%TO.N,/Row3*%
X96412500Y-74062500D03*
D13*
X97612500Y-74062500D03*
D14*
X98737500Y-74062500D03*
%TO.P,D56,2,A*%
%TO.N,Net-(D56-A)*%
X101887500Y-74062500D03*
D13*
X103012500Y-74062500D03*
D15*
X104212500Y-74062500D03*
%TD*%
D12*
%TO.P,D12,1,K*%
%TO.N,/Row0*%
X115556250Y-16968750D03*
D13*
X116756250Y-16968750D03*
D14*
X117881250Y-16968750D03*
%TO.P,D12,2,A*%
%TO.N,Net-(D12-A)*%
X121031250Y-16968750D03*
D13*
X122156250Y-16968750D03*
D15*
X123356250Y-16968750D03*
%TD*%
D12*
%TO.P,D8,1,K*%
%TO.N,/Row0*%
X39527885Y-16968750D03*
D13*
X40727885Y-16968750D03*
D14*
X41852885Y-16968750D03*
%TO.P,D8,2,A*%
%TO.N,Net-(D8-A)*%
X45002885Y-16968750D03*
D13*
X46127885Y-16968750D03*
D15*
X47327885Y-16968750D03*
%TD*%
D12*
%TO.P,D5,1,K*%
%TO.N,/Row0*%
X-17943750Y-16968750D03*
D13*
X-16743750Y-16968750D03*
D14*
X-15618750Y-16968750D03*
%TO.P,D5,2,A*%
%TO.N,Net-(D5-A)*%
X-12468750Y-16968750D03*
D13*
X-11343750Y-16968750D03*
D15*
X-10143750Y-16968750D03*
%TD*%
D12*
%TO.P,D37,1,K*%
%TO.N,/Row2*%
X20446154Y-55031250D03*
D13*
X21646154Y-55031250D03*
D14*
X22771154Y-55031250D03*
%TO.P,D37,2,A*%
%TO.N,Net-(D37-A)*%
X25921154Y-55031250D03*
D13*
X27046154Y-55031250D03*
D15*
X28246154Y-55031250D03*
%TD*%
D12*
%TO.P,D26,1,K*%
%TO.N,/Row1*%
X96412500Y-36281250D03*
D13*
X97612500Y-36281250D03*
D14*
X98737500Y-36281250D03*
%TO.P,D26,2,A*%
%TO.N,Net-(D26-A)*%
X101887500Y-36281250D03*
D13*
X103012500Y-36281250D03*
D15*
X104212500Y-36281250D03*
%TD*%
D12*
%TO.P,D73,1,K*%
%TO.N,/Row4*%
X134606250Y-93093750D03*
D13*
X135806250Y-93093750D03*
D14*
X136931250Y-93093750D03*
%TO.P,D73,2,A*%
%TO.N,Net-(D73-A)*%
X140081250Y-93093750D03*
D13*
X141206250Y-93093750D03*
D15*
X142406250Y-93093750D03*
%TD*%
D12*
%TO.P,D47,1,K*%
%TO.N,/Row3*%
X-75056250Y-74062500D03*
D13*
X-73856250Y-74062500D03*
D14*
X-72731250Y-74062500D03*
%TO.P,D47,2,A*%
%TO.N,Net-(D47-A)*%
X-69581250Y-74062500D03*
D13*
X-68456250Y-74062500D03*
D15*
X-67256250Y-74062500D03*
%TD*%
D12*
%TO.P,D7,1,K*%
%TO.N,/Row0*%
X20446154Y-16968750D03*
D13*
X21646154Y-16968750D03*
D14*
X22771154Y-16968750D03*
%TO.P,D7,2,A*%
%TO.N,Net-(D7-A)*%
X25921154Y-16968750D03*
D13*
X27046154Y-16968750D03*
D15*
X28246154Y-16968750D03*
%TD*%
D12*
%TO.P,D16,1,K*%
%TO.N,/Row1*%
X-93825000Y-36281250D03*
D13*
X-92625000Y-36281250D03*
D14*
X-91500000Y-36281250D03*
%TO.P,D16,2,A*%
%TO.N,Net-(D16-A)*%
X-88350000Y-36281250D03*
D13*
X-87225000Y-36281250D03*
D15*
X-86025000Y-36281250D03*
%TD*%
D12*
%TO.P,D27,1,K*%
%TO.N,/Row1*%
X115556250Y-36281250D03*
D13*
X116756250Y-36281250D03*
D14*
X117881250Y-36281250D03*
%TO.P,D27,2,A*%
%TO.N,Net-(D27-A)*%
X121031250Y-36281250D03*
D13*
X122156250Y-36281250D03*
D15*
X123356250Y-36281250D03*
%TD*%
D12*
%TO.P,D24,1,K*%
%TO.N,/Row1*%
X58443750Y-36281250D03*
D13*
X59643750Y-36281250D03*
D14*
X60768750Y-36281250D03*
%TO.P,D24,2,A*%
%TO.N,Net-(D24-A)*%
X63918750Y-36281250D03*
D13*
X65043750Y-36281250D03*
D15*
X66243750Y-36281250D03*
%TD*%
D16*
%TO.P,U1,1,GPIO0*%
%TO.N,/Col0*%
X206405000Y-11803750D03*
D17*
X207305000Y-11803750D03*
D16*
%TO.P,U1,2,GPIO1*%
%TO.N,/Col1*%
X206405000Y-14343750D03*
D17*
X207305000Y-14343750D03*
D18*
%TO.P,U1,3,GND*%
%TO.N,unconnected-(U1-GND-Pad3)*%
X206405000Y-16883750D03*
D17*
X207305000Y-16883750D03*
D16*
%TO.P,U1,4,GPIO2*%
%TO.N,/Col2*%
X206405000Y-19423750D03*
D17*
X207305000Y-19423750D03*
D16*
%TO.P,U1,5,GPIO3*%
%TO.N,/Col3*%
X206405000Y-21963750D03*
D17*
X207305000Y-21963750D03*
D16*
%TO.P,U1,6,GPIO4*%
%TO.N,/Col4*%
X206405000Y-24503750D03*
D17*
X207305000Y-24503750D03*
D16*
%TO.P,U1,7,GPIO5*%
%TO.N,/Col5*%
X206405000Y-27043750D03*
D17*
X207305000Y-27043750D03*
D18*
%TO.P,U1,8,GND*%
%TO.N,unconnected-(U1-GND-Pad8)*%
X206405000Y-29583750D03*
D17*
X207305000Y-29583750D03*
D16*
%TO.P,U1,9,GPIO6*%
%TO.N,/Col6*%
X206405000Y-32123750D03*
D17*
X207305000Y-32123750D03*
D16*
%TO.P,U1,10,GPIO7*%
%TO.N,/Col7*%
X206405000Y-34663750D03*
D17*
X207305000Y-34663750D03*
D16*
%TO.P,U1,11,GPIO8*%
%TO.N,/Col8*%
X206405000Y-37203750D03*
D17*
X207305000Y-37203750D03*
D16*
%TO.P,U1,12,GPIO9*%
%TO.N,/Col9*%
X206405000Y-39743750D03*
D17*
X207305000Y-39743750D03*
D18*
%TO.P,U1,13,GND*%
%TO.N,unconnected-(U1-GND-Pad13)*%
X206405000Y-42283750D03*
D17*
X207305000Y-42283750D03*
D16*
%TO.P,U1,14,GPIO10*%
%TO.N,/Col10*%
X206405000Y-44823750D03*
D17*
X207305000Y-44823750D03*
D16*
%TO.P,U1,15,GPIO11*%
%TO.N,/Col11*%
X206405000Y-47363750D03*
D17*
X207305000Y-47363750D03*
D16*
%TO.P,U1,16,GPIO12*%
%TO.N,/Col12*%
X206405000Y-49903750D03*
D17*
X207305000Y-49903750D03*
D16*
%TO.P,U1,17,GPIO13*%
%TO.N,/Col13*%
X206405000Y-52443750D03*
D17*
X207305000Y-52443750D03*
D18*
%TO.P,U1,18,GND*%
%TO.N,unconnected-(U1-GND-Pad18)*%
X206405000Y-54983750D03*
D17*
X207305000Y-54983750D03*
D16*
%TO.P,U1,19,GPIO14*%
%TO.N,/Col14*%
X206405000Y-57523750D03*
D17*
X207305000Y-57523750D03*
D16*
%TO.P,U1,20,GPIO15*%
%TO.N,/Row0*%
X206405000Y-60063750D03*
D17*
X207305000Y-60063750D03*
D16*
%TO.P,U1,21,GPIO16*%
%TO.N,/Row1*%
X188625000Y-60063750D03*
D17*
X187725000Y-60063750D03*
D16*
%TO.P,U1,22,GPIO17*%
%TO.N,/Row2*%
X188625000Y-57523750D03*
D17*
X187725000Y-57523750D03*
D18*
%TO.P,U1,23,GND*%
%TO.N,unconnected-(U1-GND-Pad23)*%
X188625000Y-54983750D03*
D17*
X187725000Y-54983750D03*
D16*
%TO.P,U1,24,GPIO18*%
%TO.N,/Row3*%
X188625000Y-52443750D03*
D17*
X187725000Y-52443750D03*
D16*
%TO.P,U1,25,GPIO19*%
%TO.N,/Row4*%
X188625000Y-49903750D03*
D17*
X187725000Y-49903750D03*
D16*
%TO.P,U1,26,GPIO20*%
%TO.N,unconnected-(U1-GPIO20-Pad26)*%
X188625000Y-47363750D03*
D17*
X187725000Y-47363750D03*
D16*
%TO.P,U1,27,GPIO21*%
%TO.N,unconnected-(U1-GPIO21-Pad27)*%
X188625000Y-44823750D03*
D17*
X187725000Y-44823750D03*
D18*
%TO.P,U1,28,GND*%
%TO.N,unconnected-(U1-GND-Pad28)*%
X188625000Y-42283750D03*
D17*
X187725000Y-42283750D03*
D16*
%TO.P,U1,29,GPIO22*%
%TO.N,unconnected-(U1-GPIO22-Pad29)*%
X188625000Y-39743750D03*
D17*
X187725000Y-39743750D03*
D16*
%TO.P,U1,30,RUN*%
%TO.N,unconnected-(U1-RUN-Pad30)*%
X188625000Y-37203750D03*
D17*
X187725000Y-37203750D03*
D16*
%TO.P,U1,31,GPIO26_ADC0*%
%TO.N,unconnected-(U1-GPIO26_ADC0-Pad31)*%
X188625000Y-34663750D03*
D17*
X187725000Y-34663750D03*
D16*
%TO.P,U1,32,GPIO27_ADC1*%
%TO.N,unconnected-(U1-GPIO27_ADC1-Pad32)*%
X188625000Y-32123750D03*
D17*
X187725000Y-32123750D03*
D18*
%TO.P,U1,33,AGND*%
%TO.N,unconnected-(U1-AGND-Pad33)*%
X188625000Y-29583750D03*
D17*
X187725000Y-29583750D03*
D16*
%TO.P,U1,34,GPIO28_ADC2*%
%TO.N,unconnected-(U1-GPIO28_ADC2-Pad34)*%
X188625000Y-27043750D03*
D17*
X187725000Y-27043750D03*
D16*
%TO.P,U1,35,ADC_VREF*%
%TO.N,unconnected-(U1-ADC_VREF-Pad35)*%
X188625000Y-24503750D03*
D17*
X187725000Y-24503750D03*
D16*
%TO.P,U1,36,3V3*%
%TO.N,unconnected-(U1-3V3-Pad36)*%
X188625000Y-21963750D03*
D17*
X187725000Y-21963750D03*
D16*
%TO.P,U1,37,3V3_EN*%
%TO.N,unconnected-(U1-3V3_EN-Pad37)*%
X188625000Y-19423750D03*
D17*
X187725000Y-19423750D03*
D18*
%TO.P,U1,38,GND*%
%TO.N,unconnected-(U1-GND-Pad38)*%
X188625000Y-16883750D03*
D17*
X187725000Y-16883750D03*
D16*
%TO.P,U1,39,VSYS*%
%TO.N,unconnected-(U1-VSYS-Pad39)*%
X188625000Y-14343750D03*
D17*
X187725000Y-14343750D03*
D16*
%TO.P,U1,40,VBUS*%
%TO.N,unconnected-(U1-VBUS-Pad40)*%
X188625000Y-11803750D03*
D17*
X187725000Y-11803750D03*
D16*
%TO.P,U1,41,SWCLK*%
%TO.N,unconnected-(U1-SWCLK-Pad41)*%
X200055000Y-59833750D03*
D19*
X200055000Y-60733750D03*
D18*
%TO.P,U1,42,GND*%
%TO.N,unconnected-(U1-GND-Pad42)*%
X197515000Y-59833750D03*
D19*
X197515000Y-60733750D03*
D16*
%TO.P,U1,43,SWDIO*%
%TO.N,unconnected-(U1-SWDIO-Pad43)*%
X194975000Y-59833750D03*
D19*
X194975000Y-60733750D03*
%TD*%
D12*
%TO.P,D22,1,K*%
%TO.N,/Row1*%
X20446154Y-36281250D03*
D13*
X21646154Y-36281250D03*
D14*
X22771154Y-36281250D03*
%TO.P,D22,2,A*%
%TO.N,Net-(D22-A)*%
X25921154Y-36281250D03*
D13*
X27046154Y-36281250D03*
D15*
X28246154Y-36281250D03*
%TD*%
D12*
%TO.P,D33,1,K*%
%TO.N,/Row2*%
X-56025000Y-55031250D03*
D13*
X-54825000Y-55031250D03*
D14*
X-53700000Y-55031250D03*
%TO.P,D33,2,A*%
%TO.N,Net-(D33-A)*%
X-50550000Y-55031250D03*
D13*
X-49425000Y-55031250D03*
D15*
X-48225000Y-55031250D03*
%TD*%
D12*
%TO.P,D15,1,K*%
%TO.N,/Row0*%
X172425000Y-16968750D03*
D13*
X173625000Y-16968750D03*
D14*
X174750000Y-16968750D03*
%TO.P,D15,2,A*%
%TO.N,Net-(D15-A)*%
X177900000Y-16968750D03*
D13*
X179025000Y-16968750D03*
D15*
X180225000Y-16968750D03*
%TD*%
D12*
%TO.P,D42,1,K*%
%TO.N,/Row2*%
X115556250Y-55031250D03*
D13*
X116756250Y-55031250D03*
D14*
X117881250Y-55031250D03*
%TO.P,D42,2,A*%
%TO.N,Net-(D42-A)*%
X121031250Y-55031250D03*
D13*
X122156250Y-55031250D03*
D15*
X123356250Y-55031250D03*
%TD*%
D12*
%TO.P,D58,1,K*%
%TO.N,/Row3*%
X134606250Y-74062500D03*
D13*
X135806250Y-74062500D03*
D14*
X136931250Y-74062500D03*
%TO.P,D58,2,A*%
%TO.N,Net-(D58-A)*%
X140081250Y-74062500D03*
D13*
X141206250Y-74062500D03*
D15*
X142406250Y-74062500D03*
%TD*%
D12*
%TO.P,D20,1,K*%
%TO.N,/Row1*%
X-17943750Y-36281250D03*
D13*
X-16743750Y-36281250D03*
D14*
X-15618750Y-36281250D03*
%TO.P,D20,2,A*%
%TO.N,Net-(D20-A)*%
X-12468750Y-36281250D03*
D13*
X-11343750Y-36281250D03*
D15*
X-10143750Y-36281250D03*
%TD*%
D12*
%TO.P,D34,1,K*%
%TO.N,/Row2*%
X-37068750Y-55031250D03*
D13*
X-35868750Y-55031250D03*
D14*
X-34743750Y-55031250D03*
%TO.P,D34,2,A*%
%TO.N,Net-(D34-A)*%
X-31593750Y-55031250D03*
D13*
X-30468750Y-55031250D03*
D15*
X-29268750Y-55031250D03*
%TD*%
D12*
%TO.P,D35,1,K*%
%TO.N,/Row2*%
X-17943750Y-55031250D03*
D13*
X-16743750Y-55031250D03*
D14*
X-15618750Y-55031250D03*
%TO.P,D35,2,A*%
%TO.N,Net-(D35-A)*%
X-12468750Y-55031250D03*
D13*
X-11343750Y-55031250D03*
D15*
X-10143750Y-55031250D03*
%TD*%
D12*
%TO.P,D2,1,K*%
%TO.N,/Row0*%
X-74962500Y-16968750D03*
D13*
X-73762500Y-16968750D03*
D14*
X-72637500Y-16968750D03*
%TO.P,D2,2,A*%
%TO.N,Net-(D2-A)*%
X-69487500Y-16968750D03*
D13*
X-68362500Y-16968750D03*
D15*
X-67162500Y-16968750D03*
%TD*%
D12*
%TO.P,D39,1,K*%
%TO.N,/Row2*%
X58443750Y-55031250D03*
D13*
X59643750Y-55031250D03*
D14*
X60768750Y-55031250D03*
%TO.P,D39,2,A*%
%TO.N,Net-(D39-A)*%
X63918750Y-55031250D03*
D13*
X65043750Y-55031250D03*
D15*
X66243750Y-55031250D03*
%TD*%
D12*
%TO.P,D29,1,K*%
%TO.N,/Row1*%
X153731250Y-36281250D03*
D13*
X154931250Y-36281250D03*
D14*
X156056250Y-36281250D03*
%TO.P,D29,2,A*%
%TO.N,Net-(D29-A)*%
X159206250Y-36281250D03*
D13*
X160331250Y-36281250D03*
D15*
X161531250Y-36281250D03*
%TD*%
D12*
%TO.P,D51,1,K*%
%TO.N,/Row3*%
X1425000Y-74062500D03*
D13*
X2625000Y-74062500D03*
D14*
X3750000Y-74062500D03*
%TO.P,D51,2,A*%
%TO.N,Net-(D51-A)*%
X6900000Y-74062500D03*
D13*
X8025000Y-74062500D03*
D15*
X9225000Y-74062500D03*
%TD*%
D12*
%TO.P,D21,1,K*%
%TO.N,/Row1*%
X1425000Y-36281250D03*
D13*
X2625000Y-36281250D03*
D14*
X3750000Y-36281250D03*
%TO.P,D21,2,A*%
%TO.N,Net-(D21-A)*%
X6900000Y-36281250D03*
D13*
X8025000Y-36281250D03*
D15*
X9225000Y-36281250D03*
%TD*%
D12*
%TO.P,D31,1,K*%
%TO.N,/Row2*%
X-93825000Y-55031250D03*
D13*
X-92625000Y-55031250D03*
D14*
X-91500000Y-55031250D03*
%TO.P,D31,2,A*%
%TO.N,Net-(D31-A)*%
X-88350000Y-55031250D03*
D13*
X-87225000Y-55031250D03*
D15*
X-86025000Y-55031250D03*
%TD*%
D12*
%TO.P,D10,1,K*%
%TO.N,/Row0*%
X77175000Y-16968750D03*
D13*
X78375000Y-16968750D03*
D14*
X79500000Y-16968750D03*
%TO.P,D10,2,A*%
%TO.N,Net-(D10-A)*%
X82650000Y-16968750D03*
D13*
X83775000Y-16968750D03*
D15*
X84975000Y-16968750D03*
%TD*%
D12*
%TO.P,D62,1,K*%
%TO.N,/Row4*%
X-79668750Y-93187500D03*
D13*
X-78468750Y-93187500D03*
D14*
X-77343750Y-93187500D03*
%TO.P,D62,2,A*%
%TO.N,Net-(D62-A)*%
X-74193750Y-93187500D03*
D13*
X-73068750Y-93187500D03*
D15*
X-71868750Y-93187500D03*
%TD*%
D12*
%TO.P,D45,1,K*%
%TO.N,/Row2*%
X172425000Y-55031250D03*
D13*
X173625000Y-55031250D03*
D14*
X174750000Y-55031250D03*
%TO.P,D45,2,A*%
%TO.N,Net-(D45-A)*%
X177900000Y-55031250D03*
D13*
X179025000Y-55031250D03*
D15*
X180225000Y-55031250D03*
%TD*%
D12*
%TO.P,D38,1,K*%
%TO.N,/Row2*%
X39527885Y-55031250D03*
D13*
X40727885Y-55031250D03*
D14*
X41852885Y-55031250D03*
%TO.P,D38,2,A*%
%TO.N,Net-(D38-A)*%
X45002885Y-55031250D03*
D13*
X46127885Y-55031250D03*
D15*
X47327885Y-55031250D03*
%TD*%
D12*
%TO.P,D52,1,K*%
%TO.N,/Row3*%
X20446154Y-74062500D03*
D13*
X21646154Y-74062500D03*
D14*
X22771154Y-74062500D03*
%TO.P,D52,2,A*%
%TO.N,Net-(D52-A)*%
X25921154Y-74062500D03*
D13*
X27046154Y-74062500D03*
D15*
X28246154Y-74062500D03*
%TD*%
D12*
%TO.P,D63,1,K*%
%TO.N,/Row4*%
X-60262500Y-93093750D03*
D13*
X-59062500Y-93093750D03*
D14*
X-57937500Y-93093750D03*
%TO.P,D63,2,A*%
%TO.N,Net-(D63-A)*%
X-54787500Y-93093750D03*
D13*
X-53662500Y-93093750D03*
D15*
X-52462500Y-93093750D03*
%TD*%
D12*
%TO.P,D41,1,K*%
%TO.N,/Row2*%
X96412500Y-55031250D03*
D13*
X97612500Y-55031250D03*
D14*
X98737500Y-55031250D03*
%TO.P,D41,2,A*%
%TO.N,Net-(D41-A)*%
X101887500Y-55031250D03*
D13*
X103012500Y-55031250D03*
D15*
X104212500Y-55031250D03*
%TD*%
D12*
%TO.P,D74,1,K*%
%TO.N,/Row4*%
X153731250Y-93093750D03*
D13*
X154931250Y-93093750D03*
D14*
X156056250Y-93093750D03*
%TO.P,D74,2,A*%
%TO.N,Net-(D74-A)*%
X159206250Y-93093750D03*
D13*
X160331250Y-93093750D03*
D15*
X161531250Y-93093750D03*
%TD*%
D12*
%TO.P,D30,1,K*%
%TO.N,/Row1*%
X172425000Y-36281250D03*
D13*
X173625000Y-36281250D03*
D14*
X174750000Y-36281250D03*
%TO.P,D30,2,A*%
%TO.N,Net-(D30-A)*%
X177900000Y-36281250D03*
D13*
X179025000Y-36281250D03*
D15*
X180225000Y-36281250D03*
%TD*%
D12*
%TO.P,D48,1,K*%
%TO.N,/Row3*%
X-56025000Y-74062500D03*
D13*
X-54825000Y-74062500D03*
D14*
X-53700000Y-74062500D03*
%TO.P,D48,2,A*%
%TO.N,Net-(D48-A)*%
X-50550000Y-74062500D03*
D13*
X-49425000Y-74062500D03*
D15*
X-48225000Y-74062500D03*
%TD*%
D12*
%TO.P,D17,1,K*%
%TO.N,/Row1*%
X-75056250Y-36281250D03*
D13*
X-73856250Y-36281250D03*
D14*
X-72731250Y-36281250D03*
%TO.P,D17,2,A*%
%TO.N,Net-(D17-A)*%
X-69581250Y-36281250D03*
D13*
X-68456250Y-36281250D03*
D15*
X-67256250Y-36281250D03*
%TD*%
D12*
%TO.P,D49,1,K*%
%TO.N,/Row3*%
X-37068750Y-74062500D03*
D13*
X-35868750Y-74062500D03*
D14*
X-34743750Y-74062500D03*
%TO.P,D49,2,A*%
%TO.N,Net-(D49-A)*%
X-31593750Y-74062500D03*
D13*
X-30468750Y-74062500D03*
D15*
X-29268750Y-74062500D03*
%TD*%
D12*
%TO.P,D75,1,K*%
%TO.N,/Row4*%
X172425000Y-93093750D03*
D13*
X173625000Y-93093750D03*
D14*
X174750000Y-93093750D03*
%TO.P,D75,2,A*%
%TO.N,Net-(D75-A)*%
X177900000Y-93093750D03*
D13*
X179025000Y-93093750D03*
D15*
X180225000Y-93093750D03*
%TD*%
D12*
%TO.P,D64,1,K*%
%TO.N,/Row4*%
X-41118750Y-93000000D03*
D13*
X-39918750Y-93000000D03*
D14*
X-38793750Y-93000000D03*
%TO.P,D64,2,A*%
%TO.N,Net-(D64-A)*%
X-35643750Y-93000000D03*
D13*
X-34518750Y-93000000D03*
D15*
X-33318750Y-93000000D03*
%TD*%
D12*
%TO.P,D46,1,K*%
%TO.N,/Row3*%
X-93825000Y-74062500D03*
D13*
X-92625000Y-74062500D03*
D14*
X-91500000Y-74062500D03*
%TO.P,D46,2,A*%
%TO.N,Net-(D46-A)*%
X-88350000Y-74062500D03*
D13*
X-87225000Y-74062500D03*
D15*
X-86025000Y-74062500D03*
%TD*%
D12*
%TO.P,D14,1,K*%
%TO.N,/Row0*%
X153731250Y-16968750D03*
D13*
X154931250Y-16968750D03*
D14*
X156056250Y-16968750D03*
%TO.P,D14,2,A*%
%TO.N,Net-(D14-A)*%
X159206250Y-16968750D03*
D13*
X160331250Y-16968750D03*
D15*
X161531250Y-16968750D03*
%TD*%
D12*
%TO.P,D55,1,K*%
%TO.N,/Row3*%
X77175000Y-74062500D03*
D13*
X78375000Y-74062500D03*
D14*
X79500000Y-74062500D03*
%TO.P,D55,2,A*%
%TO.N,Net-(D55-A)*%
X82650000Y-74062500D03*
D13*
X83775000Y-74062500D03*
D15*
X84975000Y-74062500D03*
%TD*%
D12*
%TO.P,D71,1,K*%
%TO.N,/Row4*%
X96412500Y-93093750D03*
D13*
X97612500Y-93093750D03*
D14*
X98737500Y-93093750D03*
%TO.P,D71,2,A*%
%TO.N,Net-(D71-A)*%
X101887500Y-93093750D03*
D13*
X103012500Y-93093750D03*
D15*
X104212500Y-93093750D03*
%TD*%
D12*
%TO.P,D44,1,K*%
%TO.N,/Row2*%
X153731250Y-55031250D03*
D13*
X154931250Y-55031250D03*
D14*
X156056250Y-55031250D03*
%TO.P,D44,2,A*%
%TO.N,Net-(D44-A)*%
X159206250Y-55031250D03*
D13*
X160331250Y-55031250D03*
D15*
X161531250Y-55031250D03*
%TD*%
D12*
%TO.P,D68,1,K*%
%TO.N,/Row4*%
X27337500Y-93093750D03*
D13*
X28537500Y-93093750D03*
D14*
X29662500Y-93093750D03*
%TO.P,D68,2,A*%
%TO.N,Net-(D68-A)*%
X32812500Y-93093750D03*
D13*
X33937500Y-93093750D03*
D15*
X35137500Y-93093750D03*
%TD*%
D12*
%TO.P,D43,1,K*%
%TO.N,/Row2*%
X134606250Y-55031250D03*
D13*
X135806250Y-55031250D03*
D14*
X136931250Y-55031250D03*
%TO.P,D43,2,A*%
%TO.N,Net-(D43-A)*%
X140081250Y-55031250D03*
D13*
X141206250Y-55031250D03*
D15*
X142406250Y-55031250D03*
%TD*%
D12*
%TO.P,D11,1,K*%
%TO.N,/Row0*%
X96412500Y-16968750D03*
D13*
X97612500Y-16968750D03*
D14*
X98737500Y-16968750D03*
%TO.P,D11,2,A*%
%TO.N,Net-(D11-A)*%
X101887500Y-16968750D03*
D13*
X103012500Y-16968750D03*
D15*
X104212500Y-16968750D03*
%TD*%
D12*
%TO.P,D60,1,K*%
%TO.N,/Row3*%
X172425000Y-74062500D03*
D13*
X173625000Y-74062500D03*
D14*
X174750000Y-74062500D03*
%TO.P,D60,2,A*%
%TO.N,Net-(D60-A)*%
X177900000Y-74062500D03*
D13*
X179025000Y-74062500D03*
D15*
X180225000Y-74062500D03*
%TD*%
D12*
%TO.P,D25,1,K*%
%TO.N,/Row1*%
X77175000Y-36281250D03*
D13*
X78375000Y-36281250D03*
D14*
X79500000Y-36281250D03*
%TO.P,D25,2,A*%
%TO.N,Net-(D25-A)*%
X82650000Y-36281250D03*
D13*
X83775000Y-36281250D03*
D15*
X84975000Y-36281250D03*
%TD*%
D12*
%TO.P,D57,1,K*%
%TO.N,/Row3*%
X115556250Y-74062500D03*
D13*
X116756250Y-74062500D03*
D14*
X117881250Y-74062500D03*
%TO.P,D57,2,A*%
%TO.N,Net-(D57-A)*%
X121031250Y-74062500D03*
D13*
X122156250Y-74062500D03*
D15*
X123356250Y-74062500D03*
%TD*%
D12*
%TO.P,D3,1,K*%
%TO.N,/Row0*%
X-56025000Y-16968750D03*
D13*
X-54825000Y-16968750D03*
D14*
X-53700000Y-16968750D03*
%TO.P,D3,2,A*%
%TO.N,Net-(D3-A)*%
X-50550000Y-16968750D03*
D13*
X-49425000Y-16968750D03*
D15*
X-48225000Y-16968750D03*
%TD*%
D12*
%TO.P,D50,1,K*%
%TO.N,/Row3*%
X-17943750Y-74062500D03*
D13*
X-16743750Y-74062500D03*
D14*
X-15618750Y-74062500D03*
%TO.P,D50,2,A*%
%TO.N,Net-(D50-A)*%
X-12468750Y-74062500D03*
D13*
X-11343750Y-74062500D03*
D15*
X-10143750Y-74062500D03*
%TD*%
D12*
%TO.P,D28,1,K*%
%TO.N,/Row1*%
X134606250Y-36281250D03*
D13*
X135806250Y-36281250D03*
D14*
X136931250Y-36281250D03*
%TO.P,D28,2,A*%
%TO.N,Net-(D28-A)*%
X140081250Y-36281250D03*
D13*
X141206250Y-36281250D03*
D15*
X142406250Y-36281250D03*
%TD*%
D12*
%TO.P,D18,1,K*%
%TO.N,/Row1*%
X-56025000Y-36281250D03*
D13*
X-54825000Y-36281250D03*
D14*
X-53700000Y-36281250D03*
%TO.P,D18,2,A*%
%TO.N,Net-(D18-A)*%
X-50550000Y-36281250D03*
D13*
X-49425000Y-36281250D03*
D15*
X-48225000Y-36281250D03*
%TD*%
D12*
%TO.P,D19,1,K*%
%TO.N,/Row1*%
X-37068750Y-36281250D03*
D13*
X-35868750Y-36281250D03*
D14*
X-34743750Y-36281250D03*
%TO.P,D19,2,A*%
%TO.N,Net-(D19-A)*%
X-31593750Y-36281250D03*
D13*
X-30468750Y-36281250D03*
D15*
X-29268750Y-36281250D03*
%TD*%
D12*
%TO.P,D36,1,K*%
%TO.N,/Row2*%
X1425000Y-55031250D03*
D13*
X2625000Y-55031250D03*
D14*
X3750000Y-55031250D03*
%TO.P,D36,2,A*%
%TO.N,Net-(D36-A)*%
X6900000Y-55031250D03*
D13*
X8025000Y-55031250D03*
D15*
X9225000Y-55031250D03*
%TD*%
D12*
%TO.P,D9,1,K*%
%TO.N,/Row0*%
X58443750Y-16968750D03*
D13*
X59643750Y-16968750D03*
D14*
X60768750Y-16968750D03*
%TO.P,D9,2,A*%
%TO.N,Net-(D9-A)*%
X63918750Y-16968750D03*
D13*
X65043750Y-16968750D03*
D15*
X66243750Y-16968750D03*
%TD*%
D12*
%TO.P,D72,1,K*%
%TO.N,/Row4*%
X115556250Y-93093750D03*
D13*
X116756250Y-93093750D03*
D14*
X117881250Y-93093750D03*
%TO.P,D72,2,A*%
%TO.N,Net-(D72-A)*%
X121031250Y-93093750D03*
D13*
X122156250Y-93093750D03*
D15*
X123356250Y-93093750D03*
%TD*%
D12*
%TO.P,D23,1,K*%
%TO.N,/Row1*%
X39527885Y-36281250D03*
D13*
X40727885Y-36281250D03*
D14*
X41852885Y-36281250D03*
%TO.P,D23,2,A*%
%TO.N,Net-(D23-A)*%
X45002885Y-36281250D03*
D13*
X46127885Y-36281250D03*
D15*
X47327885Y-36281250D03*
%TD*%
D12*
%TO.P,D53,1,K*%
%TO.N,/Row3*%
X39527885Y-74062500D03*
D13*
X40727885Y-74062500D03*
D14*
X41852885Y-74062500D03*
%TO.P,D53,2,A*%
%TO.N,Net-(D53-A)*%
X45002885Y-74062500D03*
D13*
X46127885Y-74062500D03*
D15*
X47327885Y-74062500D03*
%TD*%
D20*
%TO.N,/Row0*%
X169406250Y-78281250D03*
%TO.N,/Row1*%
X183468750Y-49687500D03*
%TO.N,/Row2*%
X177093750Y-58312500D03*
%TO.N,/Col0*%
X191876000Y-20343750D03*
X176531250Y-21281250D03*
X202781250Y-21281250D03*
%TO.N,/Col1*%
X205085501Y-33641782D03*
%TD*%
D21*
%TO.N,/Row0*%
X20446154Y-16968750D02*
X21547154Y-18069750D01*
X40628885Y-18069750D02*
X57342750Y-18069750D01*
X-35967750Y-18069750D02*
X-19044750Y-18069750D01*
X57342750Y-18069750D02*
X58443750Y-16968750D01*
X-73861500Y-18069750D02*
X-57126000Y-18069750D01*
X114455250Y-18069750D02*
X115556250Y-16968750D01*
X154832250Y-18069750D02*
X171324000Y-18069750D01*
X78276000Y-18069750D02*
X95311500Y-18069750D01*
X59544750Y-18069750D02*
X76074000Y-18069750D01*
X153731250Y-16968750D02*
X154832250Y-18069750D01*
X133505250Y-18069750D02*
X134606250Y-16968750D01*
X96412500Y-16968750D02*
X97513500Y-18069750D01*
X-92724000Y-18069750D02*
X-76063500Y-18069750D01*
X134606250Y-16968750D02*
X135707250Y-18069750D01*
X-17943750Y-16968750D02*
X-16842750Y-18069750D01*
X77175000Y-16968750D02*
X78276000Y-18069750D01*
X188187500Y-78281250D02*
X206405000Y-60063750D01*
X58443750Y-16968750D02*
X59544750Y-18069750D01*
X-38169750Y-18069750D02*
X-37068750Y-16968750D01*
X39527885Y-16968750D02*
X40628885Y-18069750D01*
X135707250Y-18069750D02*
X152630250Y-18069750D01*
X171324000Y-18069750D02*
X172425000Y-16968750D01*
X-37068750Y-16968750D02*
X-35967750Y-18069750D01*
X1425000Y-16968750D02*
X2526000Y-18069750D01*
X-74962500Y-16968750D02*
X-73861500Y-18069750D01*
X38426885Y-18069750D02*
X39527885Y-16968750D01*
X95311500Y-18069750D02*
X96412500Y-16968750D01*
X-57126000Y-18069750D02*
X-56025000Y-16968750D01*
X-76063500Y-18069750D02*
X-74962500Y-16968750D01*
X169406250Y-78281250D02*
X188187500Y-78281250D01*
X115556250Y-16968750D02*
X116657250Y-18069750D01*
X2526000Y-18069750D02*
X19345154Y-18069750D01*
X-16842750Y-18069750D02*
X324000Y-18069750D01*
X97513500Y-18069750D02*
X114455250Y-18069750D01*
X21547154Y-18069750D02*
X38426885Y-18069750D01*
X-19044750Y-18069750D02*
X-17943750Y-16968750D01*
X324000Y-18069750D02*
X1425000Y-16968750D01*
X-54924000Y-18069750D02*
X-38169750Y-18069750D01*
X76074000Y-18069750D02*
X77175000Y-16968750D01*
X19345154Y-18069750D02*
X20446154Y-16968750D01*
X116657250Y-18069750D02*
X133505250Y-18069750D01*
X-56025000Y-16968750D02*
X-54924000Y-18069750D01*
X152630250Y-18069750D02*
X153731250Y-16968750D01*
X-93825000Y-16968750D02*
X-92724000Y-18069750D01*
%TO.N,/Row1*%
X2526000Y-37382250D02*
X1425000Y-36281250D01*
X154832250Y-37382250D02*
X153731250Y-36281250D01*
X58443750Y-36281250D02*
X56287500Y-38437500D01*
X96412500Y-36281250D02*
X95311500Y-37382250D01*
X183468750Y-47325000D02*
X183468750Y-49687500D01*
X-57126000Y-37382250D02*
X-73955250Y-37382250D01*
X134606250Y-36281250D02*
X133505250Y-37382250D01*
X153731250Y-36281250D02*
X152630250Y-37382250D01*
X116657250Y-37382250D02*
X115556250Y-36281250D01*
X39527885Y-36281250D02*
X38426885Y-37382250D01*
X135707250Y-37382250D02*
X134606250Y-36281250D01*
X77175000Y-36281250D02*
X75206250Y-38250000D01*
X-16842750Y-37382250D02*
X-17943750Y-36281250D01*
X1425000Y-36281250D02*
X324000Y-37382250D01*
X19345154Y-37382250D02*
X2526000Y-37382250D01*
X172425000Y-36281250D02*
X183468750Y-47325000D01*
X-19044750Y-37382250D02*
X-35967750Y-37382250D01*
X21547154Y-37382250D02*
X20446154Y-36281250D01*
X60412500Y-38250000D02*
X58443750Y-36281250D01*
X-76157250Y-37382250D02*
X-92724000Y-37382250D01*
X38426885Y-37382250D02*
X21547154Y-37382250D01*
X-37068750Y-36281250D02*
X-38169750Y-37382250D01*
X-54924000Y-37382250D02*
X-56025000Y-36281250D01*
X-35967750Y-37382250D02*
X-37068750Y-36281250D01*
X152630250Y-37382250D02*
X135707250Y-37382250D01*
X114455250Y-37382250D02*
X97513500Y-37382250D01*
X324000Y-37382250D02*
X-16842750Y-37382250D01*
X56287500Y-38437500D02*
X41684135Y-38437500D01*
X95311500Y-37382250D02*
X78276000Y-37382250D01*
X-73955250Y-37382250D02*
X-75056250Y-36281250D01*
X20446154Y-36281250D02*
X19345154Y-37382250D01*
X75206250Y-38250000D02*
X60412500Y-38250000D01*
X-38169750Y-37382250D02*
X-54924000Y-37382250D01*
X115556250Y-36281250D02*
X114455250Y-37382250D01*
X-17943750Y-36281250D02*
X-19044750Y-37382250D01*
X97513500Y-37382250D02*
X96412500Y-36281250D01*
X-75056250Y-36281250D02*
X-76157250Y-37382250D01*
X-56025000Y-36281250D02*
X-57126000Y-37382250D01*
X78276000Y-37382250D02*
X77175000Y-36281250D01*
X41684135Y-38437500D02*
X39527885Y-36281250D01*
X133505250Y-37382250D02*
X116657250Y-37382250D01*
X172425000Y-36281250D02*
X171324000Y-37382250D01*
X171324000Y-37382250D02*
X154832250Y-37382250D01*
X-92724000Y-37382250D02*
X-93825000Y-36281250D01*
%TO.N,/Row2*%
X39527885Y-55031250D02*
X40628885Y-56132250D01*
X172425000Y-55031250D02*
X173812500Y-55031250D01*
X-75056250Y-55031250D02*
X-73955250Y-56132250D01*
X-37068750Y-55031250D02*
X-35967750Y-56132250D01*
X135707250Y-56132250D02*
X152630250Y-56132250D01*
X-19044750Y-56132250D02*
X-17943750Y-55031250D01*
X133505250Y-56132250D02*
X134606250Y-55031250D01*
X95311500Y-56132250D02*
X96412500Y-55031250D01*
X173812500Y-55031250D02*
X177093750Y-58312500D01*
X-73955250Y-56132250D02*
X-57126000Y-56132250D01*
X134606250Y-55031250D02*
X135707250Y-56132250D01*
X116657250Y-56132250D02*
X133505250Y-56132250D01*
X2526000Y-56132250D02*
X19345154Y-56132250D01*
X38426885Y-56132250D02*
X39527885Y-55031250D01*
X-54924000Y-56132250D02*
X-38169750Y-56132250D01*
X324000Y-56132250D02*
X1425000Y-55031250D01*
X153731250Y-55031250D02*
X154832250Y-56132250D01*
X-92724000Y-56132250D02*
X-76157250Y-56132250D01*
X78276000Y-56132250D02*
X95311500Y-56132250D01*
X21547154Y-56132250D02*
X38426885Y-56132250D01*
X57342750Y-56132250D02*
X58443750Y-55031250D01*
X115556250Y-55031250D02*
X116657250Y-56132250D01*
X77175000Y-55031250D02*
X78276000Y-56132250D01*
X40628885Y-56132250D02*
X57342750Y-56132250D01*
X154832250Y-56132250D02*
X171324000Y-56132250D01*
X152630250Y-56132250D02*
X153731250Y-55031250D01*
X96412500Y-55031250D02*
X97513500Y-56132250D01*
X171324000Y-56132250D02*
X172425000Y-55031250D01*
X58443750Y-55031250D02*
X59544750Y-56132250D01*
X114455250Y-56132250D02*
X115556250Y-55031250D01*
X-93825000Y-55031250D02*
X-92724000Y-56132250D01*
X19345154Y-56132250D02*
X20446154Y-55031250D01*
X20446154Y-55031250D02*
X21547154Y-56132250D01*
X-16842750Y-56132250D02*
X324000Y-56132250D01*
X59544750Y-56132250D02*
X76074000Y-56132250D01*
X-56025000Y-55031250D02*
X-54924000Y-56132250D01*
X1425000Y-55031250D02*
X2526000Y-56132250D01*
X76074000Y-56132250D02*
X77175000Y-55031250D01*
X97513500Y-56132250D02*
X114455250Y-56132250D01*
X-17943750Y-55031250D02*
X-16842750Y-56132250D01*
X-57126000Y-56132250D02*
X-56025000Y-55031250D01*
X-38169750Y-56132250D02*
X-37068750Y-55031250D01*
X-76157250Y-56132250D02*
X-75056250Y-55031250D01*
X-35967750Y-56132250D02*
X-19044750Y-56132250D01*
%TO.N,/Row3*%
X-37068750Y-74062500D02*
X-38169750Y-75163500D01*
X171000000Y-60843750D02*
X177843750Y-60843750D01*
X135707250Y-75163500D02*
X134606250Y-74062500D01*
X133505250Y-75163500D02*
X116657250Y-75163500D01*
X300000Y-75187500D02*
X-16818750Y-75187500D01*
X116657250Y-75163500D02*
X115556250Y-74062500D01*
X38426885Y-75163500D02*
X21547154Y-75163500D01*
X20446154Y-74062500D02*
X19345154Y-75163500D01*
X-16818750Y-75187500D02*
X-17943750Y-74062500D01*
X-77025000Y-76031250D02*
X-91856250Y-76031250D01*
X172425000Y-74062500D02*
X171324000Y-75163500D01*
X19345154Y-75163500D02*
X2526000Y-75163500D01*
X40628885Y-75163500D02*
X39527885Y-74062500D01*
X-19044750Y-75163500D02*
X-35967750Y-75163500D01*
X-73955250Y-75163500D02*
X-75056250Y-74062500D01*
X114455250Y-75163500D02*
X97513500Y-75163500D01*
X57342750Y-75163500D02*
X40628885Y-75163500D01*
X2526000Y-75163500D02*
X1425000Y-74062500D01*
X134606250Y-74062500D02*
X133505250Y-75163500D01*
X186243750Y-52443750D02*
X188625000Y-52443750D01*
X-38169750Y-75163500D02*
X-54924000Y-75163500D01*
X97513500Y-75163500D02*
X96412500Y-74062500D01*
X115556250Y-74062500D02*
X114455250Y-75163500D01*
X171324000Y-75163500D02*
X154832250Y-75163500D01*
X76074000Y-75163500D02*
X59544750Y-75163500D01*
X21547154Y-75163500D02*
X20446154Y-74062500D01*
X-91856250Y-76031250D02*
X-93825000Y-74062500D01*
X39527885Y-74062500D02*
X38426885Y-75163500D01*
X-54924000Y-75163500D02*
X-56025000Y-74062500D01*
X172425000Y-74062500D02*
X170248100Y-71885600D01*
X59544750Y-75163500D02*
X58443750Y-74062500D01*
X-56025000Y-74062500D02*
X-57126000Y-75163500D01*
X177843750Y-60843750D02*
X186243750Y-52443750D01*
X170248100Y-71885600D02*
X170248100Y-61595650D01*
X-75056250Y-74062500D02*
X-77025000Y-76031250D01*
X170248100Y-61595650D02*
X171000000Y-60843750D01*
X153731250Y-74062500D02*
X152630250Y-75163500D01*
X-17943750Y-74062500D02*
X-19044750Y-75163500D01*
X-35967750Y-75163500D02*
X-37068750Y-74062500D01*
X-57126000Y-75163500D02*
X-73955250Y-75163500D01*
X96412500Y-74062500D02*
X95311500Y-75163500D01*
X95311500Y-75163500D02*
X78276000Y-75163500D01*
X77175000Y-74062500D02*
X76074000Y-75163500D01*
X78276000Y-75163500D02*
X77175000Y-74062500D01*
X58443750Y-74062500D02*
X57342750Y-75163500D01*
X152630250Y-75163500D02*
X135707250Y-75163500D01*
X1425000Y-74062500D02*
X300000Y-75187500D01*
X154832250Y-75163500D02*
X153731250Y-74062500D01*
%TO.N,/Row4*%
X154832250Y-94194750D02*
X171324000Y-94194750D01*
X180280050Y-75564500D02*
X189776000Y-66068550D01*
X26330250Y-94101000D02*
X27337500Y-93093750D01*
X170623000Y-75564500D02*
X180280050Y-75564500D01*
X114455250Y-94194750D02*
X115556250Y-93093750D01*
X165468750Y-86137500D02*
X165468750Y-80718750D01*
X115556250Y-93093750D02*
X116657250Y-94194750D01*
X133505250Y-94194750D02*
X134606250Y-93093750D01*
X135806250Y-93093750D02*
X136907250Y-94194750D01*
X189776000Y-66068550D02*
X189776000Y-51054750D01*
X189776000Y-51054750D02*
X188625000Y-49903750D01*
X95311500Y-94194750D02*
X96412500Y-93093750D01*
X-59161500Y-94194750D02*
X-42313500Y-94194750D01*
X-60262500Y-93093750D02*
X-59161500Y-94194750D01*
X97513500Y-94194750D02*
X114455250Y-94194750D01*
X165468750Y-80718750D02*
X170623000Y-75564500D01*
X-41118750Y-93000000D02*
X-40017750Y-94101000D01*
X116657250Y-94194750D02*
X133505250Y-94194750D01*
X-42313500Y-94194750D02*
X-41118750Y-93000000D01*
X-79668750Y-93187500D02*
X-78567750Y-94288500D01*
X172425000Y-93093750D02*
X165468750Y-86137500D01*
X171324000Y-94194750D02*
X172425000Y-93093750D01*
X96412500Y-93093750D02*
X97513500Y-94194750D01*
X152630250Y-94194750D02*
X153731250Y-93093750D01*
X136907250Y-94194750D02*
X152630250Y-94194750D01*
X28438500Y-94194750D02*
X95311500Y-94194750D01*
X-78567750Y-94288500D02*
X-61457250Y-94288500D01*
X153731250Y-93093750D02*
X154832250Y-94194750D01*
X-40017750Y-94101000D02*
X26330250Y-94101000D01*
X27337500Y-93093750D02*
X28438500Y-94194750D01*
X-61457250Y-94288500D02*
X-60262500Y-93093750D01*
%TO.N,/Col0*%
X191876000Y-20343750D02*
X192813500Y-21281250D01*
X-94926000Y-18069750D02*
X-91714500Y-21281250D01*
X-94926000Y-15867750D02*
X-94926000Y-18069750D01*
X192813500Y-21281250D02*
X202781250Y-21281250D01*
X-91714500Y-21281250D02*
X176531250Y-21281250D01*
X-93425000Y-9180000D02*
X-93425000Y-14366750D01*
X-93425000Y-14366750D02*
X-94926000Y-15867750D01*
%TO.N,/Col1*%
X189538000Y-30734750D02*
X184324993Y-30734750D01*
X-71323811Y-9180000D02*
X-74375000Y-9180000D01*
X175651000Y-17869750D02*
X175651000Y-16067750D01*
X184324993Y-26543743D02*
X175651000Y-17869750D01*
X205085501Y-33641782D02*
X192445032Y-33641782D01*
X192445032Y-33641782D02*
X189538000Y-30734750D01*
X175651000Y-16067750D02*
X175451000Y-15867750D01*
X184324993Y-30734750D02*
X184324993Y-26543743D01*
X175451000Y-15867750D02*
X-64636061Y-15867750D01*
X-64636061Y-15867750D02*
X-71323811Y-9180000D01*
%TO.N,/Col2*%
X191718750Y-10327100D02*
X191718750Y-18000000D01*
X191718750Y-18000000D02*
X193218750Y-19500000D01*
X202295000Y-19423750D02*
X206405000Y-19423750D01*
X-49426250Y-3281250D02*
X184672900Y-3281250D01*
X202218750Y-19500000D02*
X202295000Y-19423750D01*
X184672900Y-3281250D02*
X191718750Y-10327100D01*
X193218750Y-19500000D02*
X202218750Y-19500000D01*
X-55325000Y-9180000D02*
X-49426250Y-3281250D01*
%TO.N,/Col3*%
X-30860750Y-3765750D02*
X-36275000Y-9180000D01*
X206405000Y-21963750D02*
X204266000Y-24102750D01*
X184590300Y-3765750D02*
X-30860750Y-3765750D01*
X191276000Y-10451450D02*
X184590300Y-3765750D01*
X204266000Y-24102750D02*
X193415250Y-24102750D01*
X193415250Y-24102750D02*
X191276000Y-21963500D01*
X191276000Y-21963500D02*
X191276000Y-10451450D01*
%TO.N,/Col4*%
X-12211750Y-4166750D02*
X184424200Y-4166750D01*
X190875000Y-22968750D02*
X192468750Y-24562500D01*
X190875000Y-10617550D02*
X190875000Y-22968750D01*
X184424200Y-4166750D02*
X190875000Y-10617550D01*
X-17225000Y-9180000D02*
X-12211750Y-4166750D01*
X192468750Y-24562500D02*
X192527500Y-24503750D01*
X192527500Y-24503750D02*
X206405000Y-24503750D01*
%TO.N,/Col5*%
X190432250Y-24682250D02*
X190432250Y-10741900D01*
X184258100Y-4567750D02*
X6437250Y-4567750D01*
X206405000Y-27043750D02*
X192793750Y-27043750D01*
X190432250Y-10741900D02*
X184258100Y-4567750D01*
X192793750Y-27043750D02*
X190432250Y-24682250D01*
X6437250Y-4567750D02*
X1825000Y-9180000D01*
%TO.N,/Col6*%
X192187500Y-32156250D02*
X206372500Y-32156250D01*
X184092000Y-4968750D02*
X190031250Y-10908000D01*
X206372500Y-32156250D02*
X206405000Y-32123750D01*
X190031250Y-10908000D02*
X190031250Y-30000000D01*
X20875000Y-9180000D02*
X25086250Y-4968750D01*
X190031250Y-30000000D02*
X192187500Y-32156250D01*
X25086250Y-4968750D02*
X184092000Y-4968750D01*
%TD*%
%TA.AperFunction,Conductor*%
%TO.N,unconnected-(U1-GND-Pad23)*%
G36*
X185394334Y-54244913D02*
G01*
X185450267Y-54286785D01*
X185474684Y-54352249D01*
X185475000Y-54361095D01*
X185475000Y-54733750D01*
X187601000Y-54733750D01*
X187668039Y-54753435D01*
X187713794Y-54806239D01*
X187725000Y-54857750D01*
X187725000Y-55109750D01*
X187705315Y-55176789D01*
X187652511Y-55222544D01*
X187601000Y-55233750D01*
X185475000Y-55233750D01*
X185475000Y-55881594D01*
X185481401Y-55941122D01*
X185481403Y-55941129D01*
X185531645Y-56075836D01*
X185531646Y-56075838D01*
X185608890Y-56179022D01*
X185633307Y-56244486D01*
X185618456Y-56312759D01*
X185608890Y-56327644D01*
X185531204Y-56431419D01*
X185531202Y-56431421D01*
X185480908Y-56566267D01*
X185474501Y-56625866D01*
X185474500Y-56625885D01*
X185474500Y-58421620D01*
X185474501Y-58421626D01*
X185480908Y-58481233D01*
X185531202Y-58616078D01*
X185531203Y-58616080D01*
X185550416Y-58641745D01*
X185600071Y-58708076D01*
X185608578Y-58719439D01*
X185632995Y-58784903D01*
X185618144Y-58853176D01*
X185608578Y-58868061D01*
X185531203Y-58971419D01*
X185531202Y-58971421D01*
X185480908Y-59106267D01*
X185474501Y-59165866D01*
X185474500Y-59165885D01*
X185474500Y-60961620D01*
X185474501Y-60961626D01*
X185480908Y-61021233D01*
X185531202Y-61156078D01*
X185531206Y-61156085D01*
X185617452Y-61271294D01*
X185617455Y-61271297D01*
X185732664Y-61357543D01*
X185732671Y-61357547D01*
X185867517Y-61407841D01*
X185867516Y-61407841D01*
X185874444Y-61408585D01*
X185927127Y-61414250D01*
X188518708Y-61414249D01*
X188518713Y-61414250D01*
X188731287Y-61414250D01*
X188731291Y-61414249D01*
X189051500Y-61414249D01*
X189118539Y-61433934D01*
X189164294Y-61486738D01*
X189175500Y-61538249D01*
X189175500Y-65768452D01*
X189155815Y-65835491D01*
X189139181Y-65856133D01*
X181551514Y-73443799D01*
X181490191Y-73477284D01*
X181420499Y-73472300D01*
X181364566Y-73430428D01*
X181353351Y-73412417D01*
X181337287Y-73380890D01*
X181337285Y-73380887D01*
X181337284Y-73380885D01*
X181216971Y-73215286D01*
X181072213Y-73070528D01*
X180906613Y-72950215D01*
X180906612Y-72950214D01*
X180906610Y-72950213D01*
X180849653Y-72921191D01*
X180724223Y-72857281D01*
X180529534Y-72794022D01*
X180354995Y-72766378D01*
X180327352Y-72762000D01*
X180122648Y-72762000D01*
X180098329Y-72765851D01*
X179920465Y-72794022D01*
X179725776Y-72857281D01*
X179543386Y-72950215D01*
X179377786Y-73070528D01*
X179233036Y-73215278D01*
X179233029Y-73215287D01*
X179199899Y-73260886D01*
X179195568Y-73264225D01*
X179193295Y-73269203D01*
X179168194Y-73285334D01*
X179144569Y-73303552D01*
X179137896Y-73304804D01*
X179134517Y-73306977D01*
X179099582Y-73312000D01*
X179064142Y-73312000D01*
X178997103Y-73292315D01*
X178951348Y-73239511D01*
X178947960Y-73231333D01*
X178946187Y-73226581D01*
X178943796Y-73220169D01*
X178943794Y-73220166D01*
X178857547Y-73104955D01*
X178857544Y-73104952D01*
X178742335Y-73018706D01*
X178742328Y-73018702D01*
X178607482Y-72968408D01*
X178607483Y-72968408D01*
X178547883Y-72962001D01*
X178547881Y-72962000D01*
X178547873Y-72962000D01*
X178547864Y-72962000D01*
X177252129Y-72962000D01*
X177252123Y-72962001D01*
X177192516Y-72968408D01*
X177057671Y-73018702D01*
X177057664Y-73018706D01*
X176942455Y-73104952D01*
X176942452Y-73104955D01*
X176856206Y-73220164D01*
X176856202Y-73220171D01*
X176805908Y-73355017D01*
X176803127Y-73380890D01*
X176799501Y-73414623D01*
X176799500Y-73414635D01*
X176799500Y-74710370D01*
X176799501Y-74710376D01*
X176805909Y-74769984D01*
X176815861Y-74796668D01*
X176820845Y-74866359D01*
X176787359Y-74927682D01*
X176726036Y-74961167D01*
X176699679Y-74964000D01*
X175950321Y-74964000D01*
X175883282Y-74944315D01*
X175837527Y-74891511D01*
X175827583Y-74822353D01*
X175834139Y-74796668D01*
X175844090Y-74769985D01*
X175844091Y-74769984D01*
X175844091Y-74769983D01*
X175850500Y-74710373D01*
X175850499Y-73414628D01*
X175844091Y-73355017D01*
X175826173Y-73306977D01*
X175793797Y-73220171D01*
X175793793Y-73220164D01*
X175707547Y-73104955D01*
X175707544Y-73104952D01*
X175592335Y-73018706D01*
X175592328Y-73018702D01*
X175457482Y-72968408D01*
X175457483Y-72968408D01*
X175397883Y-72962001D01*
X175397881Y-72962000D01*
X175397873Y-72962000D01*
X175397864Y-72962000D01*
X174102129Y-72962000D01*
X174102123Y-72962001D01*
X174042516Y-72968408D01*
X173907671Y-73018702D01*
X173907669Y-73018704D01*
X173852100Y-73060303D01*
X173786636Y-73084720D01*
X173718363Y-73069869D01*
X173675055Y-73026562D01*
X173674112Y-73027269D01*
X173669198Y-73020705D01*
X173668957Y-73020464D01*
X173668793Y-73020164D01*
X173582547Y-72904955D01*
X173582544Y-72904952D01*
X173467335Y-72818706D01*
X173467328Y-72818702D01*
X173332482Y-72768408D01*
X173332483Y-72768408D01*
X173272883Y-72762001D01*
X173272881Y-72762000D01*
X173272873Y-72762000D01*
X173272865Y-72762000D01*
X172025098Y-72762000D01*
X171958059Y-72742315D01*
X171937417Y-72725681D01*
X170884919Y-71673183D01*
X170851434Y-71611860D01*
X170848600Y-71585502D01*
X170848600Y-70982052D01*
X170868285Y-70915013D01*
X170921089Y-70869258D01*
X170990247Y-70859314D01*
X171022426Y-70869517D01*
X171022706Y-70868843D01*
X171027211Y-70870709D01*
X171109648Y-70897494D01*
X171192088Y-70924280D01*
X171271391Y-70936840D01*
X171363313Y-70951400D01*
X171363318Y-70951400D01*
X171536687Y-70951400D01*
X171619695Y-70938252D01*
X171707912Y-70924280D01*
X171872791Y-70870708D01*
X172027260Y-70792002D01*
X172167514Y-70690101D01*
X172290101Y-70567514D01*
X172392002Y-70427260D01*
X172470708Y-70272791D01*
X172524280Y-70107912D01*
X172541831Y-69997099D01*
X172551400Y-69936687D01*
X172551400Y-69763312D01*
X172544260Y-69718233D01*
X172541831Y-69702900D01*
X174285600Y-69702900D01*
X174285600Y-69997099D01*
X174285601Y-69997116D01*
X174324001Y-70288796D01*
X174400152Y-70572994D01*
X174512734Y-70844794D01*
X174512742Y-70844810D01*
X174659840Y-71099589D01*
X174659851Y-71099605D01*
X174838948Y-71333009D01*
X174838954Y-71333016D01*
X175046983Y-71541045D01*
X175046989Y-71541050D01*
X175280403Y-71720155D01*
X175280410Y-71720159D01*
X175535189Y-71867257D01*
X175535205Y-71867265D01*
X175807005Y-71979847D01*
X175807007Y-71979847D01*
X175807013Y-71979850D01*
X176091200Y-72055998D01*
X176382894Y-72094400D01*
X176382901Y-72094400D01*
X176677099Y-72094400D01*
X176677106Y-72094400D01*
X176968800Y-72055998D01*
X177252987Y-71979850D01*
X177326318Y-71949475D01*
X177524794Y-71867265D01*
X177524797Y-71867263D01*
X177524803Y-71867261D01*
X177779597Y-71720155D01*
X178013011Y-71541050D01*
X178221050Y-71333011D01*
X178400155Y-71099597D01*
X178547261Y-70844803D01*
X178659850Y-70572987D01*
X178735998Y-70288800D01*
X178774400Y-69997106D01*
X178774400Y-69763312D01*
X180508600Y-69763312D01*
X180508600Y-69936687D01*
X180535720Y-70107913D01*
X180589290Y-70272788D01*
X180589291Y-70272791D01*
X180667998Y-70427260D01*
X180769899Y-70567514D01*
X180892486Y-70690101D01*
X181032740Y-70792002D01*
X181108502Y-70830604D01*
X181187208Y-70870708D01*
X181187211Y-70870709D01*
X181269648Y-70897494D01*
X181352088Y-70924280D01*
X181431391Y-70936840D01*
X181523313Y-70951400D01*
X181523318Y-70951400D01*
X181696687Y-70951400D01*
X181779695Y-70938252D01*
X181867912Y-70924280D01*
X182032791Y-70870708D01*
X182187260Y-70792002D01*
X182327514Y-70690101D01*
X182450101Y-70567514D01*
X182552002Y-70427260D01*
X182630708Y-70272791D01*
X182684280Y-70107912D01*
X182701831Y-69997099D01*
X182711400Y-69936687D01*
X182711400Y-69763312D01*
X182695622Y-69663702D01*
X182684280Y-69592088D01*
X182630708Y-69427209D01*
X182630708Y-69427208D01*
X182552001Y-69272739D01*
X182450101Y-69132486D01*
X182327514Y-69009899D01*
X182187260Y-68907998D01*
X182032791Y-68829291D01*
X182032788Y-68829290D01*
X181867913Y-68775720D01*
X181696687Y-68748600D01*
X181696682Y-68748600D01*
X181523318Y-68748600D01*
X181523313Y-68748600D01*
X181352086Y-68775720D01*
X181187211Y-68829290D01*
X181187208Y-68829291D01*
X181032739Y-68907998D01*
X180957053Y-68962988D01*
X180892486Y-69009899D01*
X180892484Y-69009901D01*
X180892483Y-69009901D01*
X180769901Y-69132483D01*
X180769901Y-69132484D01*
X180769899Y-69132486D01*
X180726136Y-69192719D01*
X180667998Y-69272739D01*
X180589291Y-69427208D01*
X180589290Y-69427211D01*
X180535720Y-69592086D01*
X180508600Y-69763312D01*
X178774400Y-69763312D01*
X178774400Y-69702894D01*
X178735998Y-69411200D01*
X178659850Y-69127013D01*
X178659847Y-69127005D01*
X178547265Y-68855205D01*
X178547257Y-68855189D01*
X178400159Y-68600410D01*
X178400155Y-68600403D01*
X178228613Y-68376845D01*
X178221051Y-68366990D01*
X178221045Y-68366983D01*
X178013016Y-68158954D01*
X178013009Y-68158948D01*
X177779605Y-67979851D01*
X177779603Y-67979849D01*
X177779597Y-67979845D01*
X177779592Y-67979842D01*
X177779589Y-67979840D01*
X177524810Y-67832742D01*
X177524794Y-67832734D01*
X177252994Y-67720152D01*
X176968796Y-67644001D01*
X176677116Y-67605601D01*
X176677111Y-67605600D01*
X176677106Y-67605600D01*
X176382894Y-67605600D01*
X176382888Y-67605600D01*
X176382883Y-67605601D01*
X176091203Y-67644001D01*
X175807005Y-67720152D01*
X175535205Y-67832734D01*
X175535189Y-67832742D01*
X175280410Y-67979840D01*
X175280394Y-67979851D01*
X175046990Y-68158948D01*
X175046983Y-68158954D01*
X174838954Y-68366983D01*
X174838948Y-68366990D01*
X174659851Y-68600394D01*
X174659840Y-68600410D01*
X174512742Y-68855189D01*
X174512734Y-68855205D01*
X174400152Y-69127005D01*
X174324001Y-69411203D01*
X174285601Y-69702883D01*
X174285600Y-69702900D01*
X172541831Y-69702900D01*
X172534019Y-69653579D01*
X172524280Y-69592088D01*
X172470708Y-69427209D01*
X172470708Y-69427208D01*
X172392001Y-69272738D01*
X172374432Y-69248557D01*
X172351130Y-69216485D01*
X172327650Y-69150680D01*
X172343475Y-69082626D01*
X172393580Y-69033931D01*
X172462058Y-69020055D01*
X172472984Y-69021485D01*
X172475555Y-69021938D01*
X172479558Y-69022644D01*
X172708806Y-69032654D01*
X172937401Y-69012654D01*
X173161429Y-68962988D01*
X173377059Y-68884506D01*
X173516818Y-68811752D01*
X173580593Y-68778553D01*
X173580594Y-68778552D01*
X173580593Y-68778552D01*
X173580598Y-68778550D01*
X173768568Y-68646932D01*
X173937749Y-68491906D01*
X174085248Y-68316124D01*
X175417465Y-66224963D01*
X175514442Y-66016995D01*
X175583444Y-65798148D01*
X175623291Y-65572165D01*
X175633221Y-65344731D01*
X177276026Y-65344731D01*
X177276026Y-65344747D01*
X177290435Y-65573752D01*
X177290436Y-65573761D01*
X177334609Y-65798917D01*
X177334612Y-65798927D01*
X177407804Y-66016410D01*
X177508755Y-66222477D01*
X177514043Y-66230436D01*
X177635738Y-66413601D01*
X177635740Y-66413604D01*
X177635742Y-66413606D01*
X177786589Y-66586524D01*
X177958715Y-66738274D01*
X178049729Y-66799433D01*
X178149167Y-66866253D01*
X178149170Y-66866254D01*
X178149175Y-66866258D01*
X178354713Y-66968287D01*
X178571809Y-67042615D01*
X178796749Y-67087971D01*
X179025686Y-67103578D01*
X179254700Y-67089169D01*
X179479875Y-67044992D01*
X179697358Y-66971800D01*
X179903425Y-66870849D01*
X180094554Y-66743862D01*
X180267472Y-66593015D01*
X180419222Y-66420889D01*
X180547206Y-66230429D01*
X180649235Y-66024891D01*
X180723563Y-65807795D01*
X180768919Y-65582855D01*
X180823974Y-64775262D01*
X180809565Y-64546248D01*
X180765388Y-64321073D01*
X180692196Y-64103590D01*
X180591245Y-63897523D01*
X180464258Y-63706394D01*
X180313411Y-63533476D01*
X180141285Y-63381726D01*
X180141281Y-63381723D01*
X180141277Y-63381720D01*
X179950826Y-63253744D01*
X179950825Y-63253743D01*
X179745289Y-63151714D01*
X179745287Y-63151713D01*
X179645340Y-63117494D01*
X179528195Y-63077386D01*
X179528192Y-63077385D01*
X179528191Y-63077385D01*
X179303251Y-63032029D01*
X179303246Y-63032028D01*
X179303249Y-63032028D01*
X179074320Y-63016422D01*
X179074304Y-63016422D01*
X178845295Y-63030831D01*
X178620131Y-63075007D01*
X178620119Y-63075010D01*
X178402650Y-63148196D01*
X178196578Y-63249149D01*
X178196576Y-63249150D01*
X178005450Y-63376134D01*
X177832528Y-63526985D01*
X177680776Y-63699113D01*
X177552798Y-63889563D01*
X177552793Y-63889572D01*
X177450769Y-64095099D01*
X177450763Y-64095114D01*
X177376438Y-64312200D01*
X177331080Y-64537149D01*
X177276026Y-65344731D01*
X175633221Y-65344731D01*
X175633294Y-65343061D01*
X175633296Y-65343057D01*
X175633295Y-65343050D01*
X175633301Y-65342917D01*
X175613300Y-65114322D01*
X175563635Y-64890294D01*
X175485152Y-64674664D01*
X175418303Y-64546248D01*
X175379199Y-64471129D01*
X175379198Y-64471128D01*
X175247581Y-64283157D01*
X175092554Y-64113976D01*
X175092548Y-64113971D01*
X174916776Y-63966478D01*
X174808539Y-63897524D01*
X174723239Y-63843182D01*
X174723234Y-63843180D01*
X174723226Y-63843175D01*
X174515277Y-63746208D01*
X174515271Y-63746206D01*
X174296424Y-63677203D01*
X174296419Y-63677202D01*
X174070444Y-63637356D01*
X174070438Y-63637355D01*
X173841199Y-63627347D01*
X173841184Y-63627347D01*
X173650698Y-63644013D01*
X173612599Y-63647347D01*
X173500585Y-63672180D01*
X173388569Y-63697013D01*
X173172941Y-63775494D01*
X172969402Y-63881450D01*
X172781434Y-64013065D01*
X172612253Y-64168092D01*
X172612248Y-64168098D01*
X172464755Y-64343870D01*
X171132536Y-66435035D01*
X171132531Y-66435044D01*
X171084982Y-66537014D01*
X171038810Y-66589453D01*
X170971616Y-66608605D01*
X170904735Y-66588389D01*
X170859400Y-66535224D01*
X170848600Y-66484609D01*
X170848600Y-61895747D01*
X170868285Y-61828708D01*
X170884919Y-61808066D01*
X171212416Y-61480569D01*
X171273739Y-61447084D01*
X171300097Y-61444250D01*
X177757081Y-61444250D01*
X177757097Y-61444251D01*
X177764693Y-61444251D01*
X177922804Y-61444251D01*
X177922807Y-61444251D01*
X178075535Y-61403327D01*
X178143883Y-61363866D01*
X178212466Y-61324270D01*
X178324270Y-61212466D01*
X178324270Y-61212464D01*
X178334474Y-61202261D01*
X178334478Y-61202256D01*
X185263321Y-54273412D01*
X185324642Y-54239929D01*
X185394334Y-54244913D01*
G37*
%TD.AperFunction*%
%TD*%
M02*
