M48
; DRILL file {KiCad 9.0.2} date 2025-06-02T23:42:51-0400
; FORMAT={-:-/ absolute / metric / decimal}
; #@! TF.CreationDate,2025-06-02T23:42:51-04:00
; #@! TF.GenerationSoftware,Kicad,Pcbnew,9.0.2
; #@! TF.FileFunction,Plated,1,2,PTH
FMAT,2
METRIC
; #@! TA.AperFunction,Plated,PTH,ViaDrill
T1C0.300
; #@! TA.AperFunction,Plated,PTH,ComponentDrill
T2C0.700
; #@! TA.AperFunction,Plated,PTH,ComponentDrill
T3C1.020
; #@! TA.AperFunction,Plated,PTH,ComponentDrill
T4C1.500
%
G90
G05
T1
X169.406Y-78.281
X176.531Y-21.281
X177.094Y-58.312
X183.469Y-49.688
X191.876Y-20.344
X202.781Y-21.281
X205.086Y-33.642
T2
X-93.825Y-16.969
X-93.825Y-36.281
X-93.825Y-55.031
X-93.825Y-74.062
X-86.025Y-16.969
X-86.025Y-36.281
X-86.025Y-55.031
X-86.025Y-74.062
X-79.669Y-93.188
X-75.056Y-36.281
X-75.056Y-55.031
X-75.056Y-74.062
X-74.962Y-16.969
X-71.869Y-93.188
X-67.256Y-36.281
X-67.256Y-55.031
X-67.256Y-74.062
X-67.162Y-16.969
X-60.262Y-93.094
X-56.025Y-16.969
X-56.025Y-36.281
X-56.025Y-55.031
X-56.025Y-74.062
X-52.462Y-93.094
X-48.225Y-16.969
X-48.225Y-36.281
X-48.225Y-55.031
X-48.225Y-74.062
X-41.119Y-93.0
X-37.069Y-16.969
X-37.069Y-36.281
X-37.069Y-55.031
X-37.069Y-74.062
X-33.319Y-93.0
X-29.269Y-16.969
X-29.269Y-36.281
X-29.269Y-55.031
X-29.269Y-74.062
X-17.944Y-16.969
X-17.944Y-36.281
X-17.944Y-55.031
X-17.944Y-74.062
X-10.144Y-16.969
X-10.144Y-36.281
X-10.144Y-55.031
X-10.144Y-74.062
X1.425Y-16.969
X1.425Y-36.281
X1.425Y-55.031
X1.425Y-74.062
X9.225Y-16.969
X9.225Y-36.281
X9.225Y-55.031
X9.225Y-74.062
X20.446Y-16.969
X20.446Y-36.281
X20.446Y-55.031
X20.446Y-74.062
X27.337Y-93.094
X28.246Y-16.969
X28.246Y-36.281
X28.246Y-55.031
X28.246Y-74.062
X35.137Y-93.094
X39.528Y-16.969
X39.528Y-36.281
X39.528Y-55.031
X39.528Y-74.062
X47.328Y-16.969
X47.328Y-36.281
X47.328Y-55.031
X47.328Y-74.062
X58.444Y-16.969
X58.444Y-36.281
X58.444Y-55.031
X58.444Y-74.062
X66.244Y-16.969
X66.244Y-36.281
X66.244Y-55.031
X66.244Y-74.062
X77.175Y-16.969
X77.175Y-36.281
X77.175Y-55.031
X77.175Y-74.062
X84.975Y-16.969
X84.975Y-36.281
X84.975Y-55.031
X84.975Y-74.062
X96.412Y-16.969
X96.412Y-36.281
X96.412Y-55.031
X96.412Y-74.062
X96.412Y-93.094
X104.212Y-16.969
X104.212Y-36.281
X104.212Y-55.031
X104.212Y-74.062
X104.212Y-93.094
X115.556Y-16.969
X115.556Y-36.281
X115.556Y-55.031
X115.556Y-74.062
X115.556Y-93.094
X123.356Y-16.969
X123.356Y-36.281
X123.356Y-55.031
X123.356Y-74.062
X123.356Y-93.094
X134.606Y-16.969
X134.606Y-36.281
X134.606Y-55.031
X134.606Y-74.062
X134.606Y-93.094
X142.406Y-16.969
X142.406Y-36.281
X142.406Y-55.031
X142.406Y-74.062
X142.406Y-93.094
X153.731Y-16.969
X153.731Y-36.281
X153.731Y-55.031
X153.731Y-74.062
X153.731Y-93.094
X161.531Y-16.969
X161.531Y-36.281
X161.531Y-55.031
X161.531Y-74.062
X161.531Y-93.094
X172.425Y-16.969
X172.425Y-36.281
X172.425Y-55.031
X172.425Y-74.062
X172.425Y-93.094
X180.225Y-16.969
X180.225Y-36.281
X180.225Y-55.031
X180.225Y-74.062
X180.225Y-93.094
T3
X188.625Y-11.804
X188.625Y-14.344
X188.625Y-16.884
X188.625Y-19.424
X188.625Y-21.964
X188.625Y-24.504
X188.625Y-27.044
X188.625Y-29.584
X188.625Y-32.124
X188.625Y-34.664
X188.625Y-37.204
X188.625Y-39.744
X188.625Y-42.284
X188.625Y-44.824
X188.625Y-47.364
X188.625Y-49.904
X188.625Y-52.444
X188.625Y-54.984
X188.625Y-57.524
X188.625Y-60.064
X194.975Y-59.834
X197.515Y-59.834
X200.055Y-59.834
X206.405Y-11.804
X206.405Y-14.344
X206.405Y-16.884
X206.405Y-19.424
X206.405Y-21.964
X206.405Y-24.504
X206.405Y-27.044
X206.405Y-29.584
X206.405Y-32.124
X206.405Y-34.664
X206.405Y-37.204
X206.405Y-39.744
X206.405Y-42.284
X206.405Y-44.824
X206.405Y-47.364
X206.405Y-49.904
X206.405Y-52.444
X206.405Y-54.984
X206.405Y-57.524
X206.405Y-60.064
T4
G00X-92.821Y-8.231
M15
G01X-94.029Y-10.129
M16
G05
G00X-92.821Y-27.281
M15
G01X-94.029Y-29.179
M16
G05
G00X-92.821Y-46.331
M15
G01X-94.029Y-48.229
M16
G05
G00X-92.821Y-65.381
M15
G01X-94.029Y-67.279
M16
G05
G00X-87.63Y-7.621
M15
G01X-87.67Y-8.199
M16
G05
G00X-87.63Y-26.671
M15
G01X-87.67Y-27.249
M16
G05
G00X-87.63Y-45.721
M15
G01X-87.67Y-46.299
M16
G05
G00X-87.63Y-64.771
M15
G01X-87.67Y-65.349
M16
G05
G00X-78.501Y-84.509
M15
G01X-79.709Y-86.406
M16
G05
G00X-73.771Y-8.231
M15
G01X-74.979Y-10.129
M16
G05
G00X-73.771Y-27.281
M15
G01X-74.979Y-29.179
M16
G05
G00X-73.771Y-46.331
M15
G01X-74.979Y-48.229
M16
G05
G00X-73.771Y-65.381
M15
G01X-74.979Y-67.279
M16
G05
G00X-73.31Y-83.898
M15
G01X-73.35Y-84.477
M16
G05
G00X-68.58Y-7.621
M15
G01X-68.62Y-8.199
M16
G05
G00X-68.58Y-26.671
M15
G01X-68.62Y-27.249
M16
G05
G00X-68.58Y-45.721
M15
G01X-68.62Y-46.299
M16
G05
G00X-68.58Y-64.771
M15
G01X-68.62Y-65.349
M16
G05
G00X-59.421Y-84.509
M15
G01X-60.629Y-86.406
M16
G05
G00X-54.721Y-8.231
M15
G01X-55.929Y-10.129
M16
G05
G00X-54.721Y-27.281
M15
G01X-55.929Y-29.179
M16
G05
G00X-54.721Y-46.331
M15
G01X-55.929Y-48.229
M16
G05
G00X-54.721Y-65.381
M15
G01X-55.929Y-67.279
M16
G05
G00X-54.23Y-83.898
M15
G01X-54.27Y-84.477
M16
G05
G00X-49.53Y-7.621
M15
G01X-49.57Y-8.199
M16
G05
G00X-49.53Y-26.671
M15
G01X-49.57Y-27.249
M16
G05
G00X-49.53Y-45.721
M15
G01X-49.57Y-46.299
M16
G05
G00X-49.53Y-64.771
M15
G01X-49.57Y-65.349
M16
G05
G00X-40.421Y-84.509
M15
G01X-41.629Y-86.406
M16
G05
G00X-35.671Y-8.231
M15
G01X-36.879Y-10.129
M16
G05
G00X-35.671Y-27.281
M15
G01X-36.879Y-29.179
M16
G05
G00X-35.671Y-46.331
M15
G01X-36.879Y-48.229
M16
G05
G00X-35.671Y-65.381
M15
G01X-36.879Y-67.279
M16
G05
G00X-35.23Y-83.898
M15
G01X-35.27Y-84.477
M16
G05
G00X-30.48Y-7.621
M15
G01X-30.52Y-8.199
M16
G05
G00X-30.48Y-26.671
M15
G01X-30.52Y-27.249
M16
G05
G00X-30.48Y-45.721
M15
G01X-30.52Y-46.299
M16
G05
G00X-30.48Y-64.771
M15
G01X-30.52Y-65.349
M16
G05
G00X-16.621Y-8.231
M15
G01X-17.829Y-10.129
M16
G05
G00X-16.621Y-27.281
M15
G01X-17.829Y-29.179
M16
G05
G00X-16.621Y-46.331
M15
G01X-17.829Y-48.229
M16
G05
G00X-16.621Y-65.381
M15
G01X-17.829Y-67.279
M16
G05
G00X-11.43Y-7.621
M15
G01X-11.47Y-8.199
M16
G05
G00X-11.43Y-26.671
M15
G01X-11.47Y-27.249
M16
G05
G00X-11.43Y-45.721
M15
G01X-11.47Y-46.299
M16
G05
G00X-11.43Y-64.771
M15
G01X-11.47Y-65.349
M16
G05
G00X2.429Y-8.231
M15
G01X1.221Y-10.129
M16
G05
G00X2.429Y-27.281
M15
G01X1.221Y-29.179
M16
G05
G00X2.429Y-46.331
M15
G01X1.221Y-48.229
M16
G05
G00X2.429Y-65.381
M15
G01X1.221Y-67.279
M16
G05
G00X7.62Y-7.621
M15
G01X7.58Y-8.199
M16
G05
G00X7.62Y-26.671
M15
G01X7.58Y-27.249
M16
G05
G00X7.62Y-45.721
M15
G01X7.58Y-46.299
M16
G05
G00X7.62Y-64.771
M15
G01X7.58Y-65.349
M16
G05
G00X21.479Y-8.231
M15
G01X20.271Y-10.129
M16
G05
G00X21.479Y-27.281
M15
G01X20.271Y-29.179
M16
G05
G00X21.479Y-46.331
M15
G01X20.271Y-48.229
M16
G05
G00X21.479Y-65.381
M15
G01X20.271Y-67.279
M16
G05
G00X26.67Y-7.621
M15
G01X26.63Y-8.199
M16
G05
G00X26.67Y-26.671
M15
G01X26.63Y-27.249
M16
G05
G00X26.67Y-45.721
M15
G01X26.63Y-46.299
M16
G05
G00X26.67Y-64.771
M15
G01X26.63Y-65.349
M16
G05
G00X28.593Y-84.454
M15
G01X27.384Y-86.351
M16
G05
G00X33.783Y-83.843
M15
G01X33.744Y-84.422
M16
G05
G00X40.529Y-8.231
M15
G01X39.321Y-10.129
M16
G05
G00X40.529Y-27.281
M15
G01X39.321Y-29.179
M16
G05
G00X40.529Y-46.331
M15
G01X39.321Y-48.229
M16
G05
G00X40.529Y-65.381
M15
G01X39.321Y-67.279
M16
G05
G00X45.72Y-7.621
M15
G01X45.68Y-8.199
M16
G05
G00X45.72Y-26.671
M15
G01X45.68Y-27.249
M16
G05
G00X45.72Y-45.721
M15
G01X45.68Y-46.299
M16
G05
G00X45.72Y-64.771
M15
G01X45.68Y-65.349
M16
G05
G00X59.579Y-8.231
M15
G01X58.371Y-10.129
M16
G05
G00X59.579Y-27.281
M15
G01X58.371Y-29.179
M16
G05
G00X59.579Y-46.331
M15
G01X58.371Y-48.229
M16
G05
G00X59.579Y-65.381
M15
G01X58.371Y-67.279
M16
G05
G00X64.77Y-7.621
M15
G01X64.73Y-8.199
M16
G05
G00X64.77Y-26.671
M15
G01X64.73Y-27.249
M16
G05
G00X64.77Y-45.721
M15
G01X64.73Y-46.299
M16
G05
G00X64.77Y-64.771
M15
G01X64.73Y-65.349
M16
G05
G00X78.629Y-8.231
M15
G01X77.421Y-10.129
M16
G05
G00X78.629Y-27.281
M15
G01X77.421Y-29.179
M16
G05
G00X78.629Y-46.331
M15
G01X77.421Y-48.229
M16
G05
G00X78.629Y-65.381
M15
G01X77.421Y-67.279
M16
G05
G00X83.82Y-7.621
M15
G01X83.78Y-8.199
M16
G05
G00X83.82Y-26.671
M15
G01X83.78Y-27.249
M16
G05
G00X83.82Y-45.721
M15
G01X83.78Y-46.299
M16
G05
G00X83.82Y-64.771
M15
G01X83.78Y-65.349
M16
G05
G00X97.679Y-8.231
M15
G01X96.471Y-10.129
M16
G05
G00X97.679Y-27.281
M15
G01X96.471Y-29.179
M16
G05
G00X97.679Y-46.331
M15
G01X96.471Y-48.229
M16
G05
G00X97.679Y-65.381
M15
G01X96.471Y-67.279
M16
G05
G00X97.679Y-84.431
M15
G01X96.471Y-86.329
M16
G05
G00X102.87Y-7.621
M15
G01X102.83Y-8.199
M16
G05
G00X102.87Y-26.671
M15
G01X102.83Y-27.249
M16
G05
G00X102.87Y-45.721
M15
G01X102.83Y-46.299
M16
G05
G00X102.87Y-64.771
M15
G01X102.83Y-65.349
M16
G05
G00X102.87Y-83.821
M15
G01X102.83Y-84.399
M16
G05
G00X116.729Y-8.231
M15
G01X115.521Y-10.129
M16
G05
G00X116.729Y-27.281
M15
G01X115.521Y-29.179
M16
G05
G00X116.729Y-46.331
M15
G01X115.521Y-48.229
M16
G05
G00X116.729Y-65.381
M15
G01X115.521Y-67.279
M16
G05
G00X116.729Y-84.431
M15
G01X115.521Y-86.329
M16
G05
G00X121.92Y-7.621
M15
G01X121.88Y-8.199
M16
G05
G00X121.92Y-26.671
M15
G01X121.88Y-27.249
M16
G05
G00X121.92Y-45.721
M15
G01X121.88Y-46.299
M16
G05
G00X121.92Y-64.771
M15
G01X121.88Y-65.349
M16
G05
G00X121.92Y-83.821
M15
G01X121.88Y-84.399
M16
G05
G00X135.779Y-8.231
M15
G01X134.571Y-10.129
M16
G05
G00X135.779Y-27.281
M15
G01X134.571Y-29.179
M16
G05
G00X135.779Y-46.331
M15
G01X134.571Y-48.229
M16
G05
G00X135.779Y-65.381
M15
G01X134.571Y-67.279
M16
G05
G00X135.779Y-84.431
M15
G01X134.571Y-86.329
M16
G05
G00X140.97Y-7.621
M15
G01X140.93Y-8.199
M16
G05
G00X140.97Y-26.671
M15
G01X140.93Y-27.249
M16
G05
G00X140.97Y-45.721
M15
G01X140.93Y-46.299
M16
G05
G00X140.97Y-64.771
M15
G01X140.93Y-65.349
M16
G05
G00X140.97Y-83.821
M15
G01X140.93Y-84.399
M16
G05
G00X154.829Y-8.231
M15
G01X153.621Y-10.129
M16
G05
G00X154.829Y-27.281
M15
G01X153.621Y-29.179
M16
G05
G00X154.829Y-46.331
M15
G01X153.621Y-48.229
M16
G05
G00X154.829Y-65.381
M15
G01X153.621Y-67.279
M16
G05
G00X154.829Y-84.431
M15
G01X153.621Y-86.329
M16
G05
G00X160.02Y-7.621
M15
G01X159.98Y-8.199
M16
G05
G00X160.02Y-26.671
M15
G01X159.98Y-27.249
M16
G05
G00X160.02Y-45.721
M15
G01X159.98Y-46.299
M16
G05
G00X160.02Y-64.771
M15
G01X159.98Y-65.349
M16
G05
G00X160.02Y-83.821
M15
G01X159.98Y-84.399
M16
G05
G00X173.879Y-8.231
M15
G01X172.671Y-10.129
M16
G05
G00X173.879Y-27.281
M15
G01X172.671Y-29.179
M16
G05
G00X173.879Y-46.331
M15
G01X172.671Y-48.229
M16
G05
G00X173.879Y-65.381
M15
G01X172.671Y-67.279
M16
G05
G00X173.879Y-84.431
M15
G01X172.671Y-86.329
M16
G05
G00X179.07Y-7.621
M15
G01X179.03Y-8.199
M16
G05
G00X179.07Y-26.671
M15
G01X179.03Y-27.249
M16
G05
G00X179.07Y-45.721
M15
G01X179.03Y-46.299
M16
G05
G00X179.07Y-64.771
M15
G01X179.03Y-65.349
M16
G05
G00X179.07Y-83.821
M15
G01X179.03Y-84.399
M16
G05
M30
