%TF.GenerationSoftware,KiCad,Pcbnew,9.0.2*%
%TF.CreationDate,2025-06-02T23:42:43-04:00*%
%TF.ProjectId,OrangeDeck Keyboard,4f72616e-6765-4446-9563-6b204b657962,rev?*%
%TF.SameCoordinates,Original*%
%TF.FileFunction,Soldermask,Bot*%
%TF.FilePolarity,Negative*%
%FSLAX46Y46*%
G04 Gerber Fmt 4.6, Leading zero omitted, Abs format (unit mm)*
G04 Created by KiCad (PCBNEW 9.0.2) date 2025-06-02 23:42:43*
%MOMM*%
%LPD*%
G01*
G04 APERTURE LIST*
G04 Aperture macros list*
%AMHorizOval*
0 Thick line with rounded ends*
0 $1 width*
0 $2 $3 position (X,Y) of the first rounded end (center of the circle)*
0 $4 $5 position (X,Y) of the second rounded end (center of the circle)*
0 Add line between two ends*
20,1,$1,$2,$3,$4,$5,0*
0 Add two circle primitives to create the rounded ends*
1,1,$1,$2,$3*
1,1,$1,$4,$5*%
G04 Aperture macros list end*
%ADD10C,1.701800*%
%ADD11C,3.987800*%
%ADD12HorizOval,2.500000X-0.604462X-0.948815X0.604462X0.948815X0*%
%ADD13HorizOval,2.500000X-0.019724X-0.289328X0.019724X0.289328X0*%
%ADD14C,3.048000*%
%ADD15R,1.600000X1.600000*%
%ADD16R,1.200000X1.200000*%
%ADD17C,1.600000*%
%ADD18O,1.800000X1.800000*%
%ADD19O,1.500000X1.500000*%
%ADD20O,1.700000X1.700000*%
%ADD21R,3.500000X1.700000*%
%ADD22R,1.700000X1.700000*%
%ADD23R,1.700000X3.500000*%
G04 APERTURE END LIST*
D10*
%TO.C,K67*%
X114300000Y-88900000D03*
D11*
X119380000Y-88900000D03*
D10*
X124460000Y-88900000D03*
D12*
X116125000Y-85380000D03*
D13*
X121900000Y-84110000D03*
%TD*%
D10*
%TO.C,K23*%
X38100000Y-31750000D03*
D11*
X43180000Y-31750000D03*
D10*
X48260000Y-31750000D03*
D12*
X39925000Y-28230000D03*
D13*
X45700000Y-26960000D03*
%TD*%
D10*
%TO.C,K52*%
X19050000Y-69850000D03*
D11*
X24130000Y-69850000D03*
D10*
X29210000Y-69850000D03*
D12*
X20875000Y-66330000D03*
D13*
X26650000Y-65060000D03*
%TD*%
D10*
%TO.C,K47*%
X-76200000Y-69850000D03*
D11*
X-71120000Y-69850000D03*
D10*
X-66040000Y-69850000D03*
D12*
X-74375000Y-66330000D03*
D13*
X-68600000Y-65060000D03*
%TD*%
D10*
%TO.C,K33*%
X-57150000Y-50800000D03*
D11*
X-52070000Y-50800000D03*
D10*
X-46990000Y-50800000D03*
D12*
X-55325000Y-47280000D03*
D13*
X-49550000Y-46010000D03*
%TD*%
D10*
%TO.C,K1*%
X-95250000Y-12700000D03*
D11*
X-90170000Y-12700000D03*
D10*
X-85090000Y-12700000D03*
D12*
X-93425000Y-9180000D03*
D13*
X-87650000Y-7910000D03*
%TD*%
D10*
%TO.C,K27*%
X114300000Y-31750000D03*
D11*
X119380000Y-31750000D03*
D10*
X124460000Y-31750000D03*
D12*
X116125000Y-28230000D03*
D13*
X121900000Y-26960000D03*
%TD*%
D10*
%TO.C,K60*%
X171450000Y-69850000D03*
D11*
X176530000Y-69850000D03*
D10*
X181610000Y-69850000D03*
D12*
X173275000Y-66330000D03*
D13*
X179050000Y-65060000D03*
%TD*%
D10*
%TO.C,K28*%
X133350000Y-31750000D03*
D11*
X138430000Y-31750000D03*
D10*
X143510000Y-31750000D03*
D12*
X135175000Y-28230000D03*
D13*
X140950000Y-26960000D03*
%TD*%
D10*
%TO.C,K36*%
X0Y-50800000D03*
D11*
X5080000Y-50800000D03*
D10*
X10160000Y-50800000D03*
D12*
X1825000Y-47280000D03*
D13*
X7600000Y-46010000D03*
%TD*%
D10*
%TO.C,K30*%
X171450000Y-31750000D03*
D11*
X176530000Y-31750000D03*
D10*
X181610000Y-31750000D03*
D12*
X173275000Y-28230000D03*
D13*
X179050000Y-26960000D03*
%TD*%
D10*
%TO.C,K45*%
X171450000Y-50800000D03*
D11*
X176530000Y-50800000D03*
D10*
X181610000Y-50800000D03*
D12*
X173275000Y-47280000D03*
D13*
X179050000Y-46010000D03*
%TD*%
D10*
%TO.C,K6*%
X0Y-12700000D03*
D11*
X5080000Y-12700000D03*
D10*
X10160000Y-12700000D03*
D12*
X1825000Y-9180000D03*
D13*
X7600000Y-7910000D03*
%TD*%
D10*
%TO.C,K69*%
X152400000Y-88900000D03*
D11*
X157480000Y-88900000D03*
D10*
X162560000Y-88900000D03*
D12*
X154225000Y-85380000D03*
D13*
X160000000Y-84110000D03*
%TD*%
D10*
%TO.C,K50*%
X-19050000Y-69850000D03*
D11*
X-13970000Y-69850000D03*
D10*
X-8890000Y-69850000D03*
D12*
X-17225000Y-66330000D03*
D13*
X-11450000Y-65060000D03*
%TD*%
D14*
%TO.C,K65*%
X-18794750Y-81937500D03*
D11*
X-18794750Y-97177500D03*
D10*
X26163250Y-88922500D03*
D11*
X31243250Y-88922500D03*
D10*
X36323250Y-88922500D03*
D14*
X81281250Y-81937500D03*
D11*
X81281250Y-97177500D03*
D12*
X27988250Y-85402500D03*
D13*
X33763250Y-84132500D03*
%TD*%
D10*
%TO.C,K48*%
X-57150000Y-69850000D03*
D11*
X-52070000Y-69850000D03*
D10*
X-46990000Y-69850000D03*
D12*
X-55325000Y-66330000D03*
D13*
X-49550000Y-65060000D03*
%TD*%
D10*
%TO.C,K5*%
X-19050000Y-12700000D03*
D11*
X-13970000Y-12700000D03*
D10*
X-8890000Y-12700000D03*
D12*
X-17225000Y-9180000D03*
D13*
X-11450000Y-7910000D03*
%TD*%
D10*
%TO.C,K51*%
X0Y-69850000D03*
D11*
X5080000Y-69850000D03*
D10*
X10160000Y-69850000D03*
D12*
X1825000Y-66330000D03*
D13*
X7600000Y-65060000D03*
%TD*%
D10*
%TO.C,K35*%
X-19050000Y-50800000D03*
D11*
X-13970000Y-50800000D03*
D10*
X-8890000Y-50800000D03*
D12*
X-17225000Y-47280000D03*
D13*
X-11450000Y-46010000D03*
%TD*%
D10*
%TO.C,K7*%
X19050000Y-12700000D03*
D11*
X24130000Y-12700000D03*
D10*
X29210000Y-12700000D03*
D12*
X20875000Y-9180000D03*
D13*
X26650000Y-7910000D03*
%TD*%
D10*
%TO.C,K46*%
X-95250000Y-69850000D03*
D11*
X-90170000Y-69850000D03*
D10*
X-85090000Y-69850000D03*
D12*
X-93425000Y-66330000D03*
D13*
X-87650000Y-65060000D03*
%TD*%
D10*
%TO.C,K9*%
X57150000Y-12700000D03*
D11*
X62230000Y-12700000D03*
D10*
X67310000Y-12700000D03*
D12*
X58975000Y-9180000D03*
D13*
X64750000Y-7910000D03*
%TD*%
D10*
%TO.C,K11*%
X95250000Y-12700000D03*
D11*
X100330000Y-12700000D03*
D10*
X105410000Y-12700000D03*
D12*
X97075000Y-9180000D03*
D13*
X102850000Y-7910000D03*
%TD*%
D10*
%TO.C,K24*%
X57150000Y-31750000D03*
D11*
X62230000Y-31750000D03*
D10*
X67310000Y-31750000D03*
D12*
X58975000Y-28230000D03*
D13*
X64750000Y-26960000D03*
%TD*%
D10*
%TO.C,K54*%
X57150000Y-69850000D03*
D11*
X62230000Y-69850000D03*
D10*
X67310000Y-69850000D03*
D12*
X58975000Y-66330000D03*
D13*
X64750000Y-65060000D03*
%TD*%
D10*
%TO.C,K10*%
X76200000Y-12700000D03*
D11*
X81280000Y-12700000D03*
D10*
X86360000Y-12700000D03*
D12*
X78025000Y-9180000D03*
D13*
X83800000Y-7910000D03*
%TD*%
D10*
%TO.C,K39*%
X57150000Y-50800000D03*
D11*
X62230000Y-50800000D03*
D10*
X67310000Y-50800000D03*
D12*
X58975000Y-47280000D03*
D13*
X64750000Y-46010000D03*
%TD*%
D10*
%TO.C,K66*%
X95250000Y-88900000D03*
D11*
X100330000Y-88900000D03*
D10*
X105410000Y-88900000D03*
D12*
X97075000Y-85380000D03*
D13*
X102850000Y-84110000D03*
%TD*%
D10*
%TO.C,K18*%
X-57150000Y-31750000D03*
D11*
X-52070000Y-31750000D03*
D10*
X-46990000Y-31750000D03*
D12*
X-55325000Y-28230000D03*
D13*
X-49550000Y-26960000D03*
%TD*%
D10*
%TO.C,K31*%
X-95250000Y-50800000D03*
D11*
X-90170000Y-50800000D03*
D10*
X-85090000Y-50800000D03*
D12*
X-93425000Y-47280000D03*
D13*
X-87650000Y-46010000D03*
%TD*%
D10*
%TO.C,K37*%
X19050000Y-50800000D03*
D11*
X24130000Y-50800000D03*
D10*
X29210000Y-50800000D03*
D12*
X20875000Y-47280000D03*
D13*
X26650000Y-46010000D03*
%TD*%
D10*
%TO.C,K17*%
X-76200000Y-31750000D03*
D11*
X-71120000Y-31750000D03*
D10*
X-66040000Y-31750000D03*
D12*
X-74375000Y-28230000D03*
D13*
X-68600000Y-26960000D03*
%TD*%
D10*
%TO.C,K68*%
X133350000Y-88900000D03*
D11*
X138430000Y-88900000D03*
D10*
X143510000Y-88900000D03*
D12*
X135175000Y-85380000D03*
D13*
X140950000Y-84110000D03*
%TD*%
D10*
%TO.C,K13*%
X133350000Y-12700000D03*
D11*
X138430000Y-12700000D03*
D10*
X143510000Y-12700000D03*
D12*
X135175000Y-9180000D03*
D13*
X140950000Y-7910000D03*
%TD*%
D10*
%TO.C,K26*%
X95250000Y-31750000D03*
D11*
X100330000Y-31750000D03*
D10*
X105410000Y-31750000D03*
D12*
X97075000Y-28230000D03*
D13*
X102850000Y-26960000D03*
%TD*%
D10*
%TO.C,K15*%
X171450000Y-12700000D03*
D11*
X176530000Y-12700000D03*
D10*
X181610000Y-12700000D03*
D12*
X173275000Y-9180000D03*
D13*
X179050000Y-7910000D03*
%TD*%
D10*
%TO.C,K63*%
X-61850000Y-88977500D03*
D11*
X-56770000Y-88977500D03*
D10*
X-51690000Y-88977500D03*
D12*
X-60025000Y-85457500D03*
D13*
X-54250000Y-84187500D03*
%TD*%
D10*
%TO.C,K2*%
X-76200000Y-12700000D03*
D11*
X-71120000Y-12700000D03*
D10*
X-66040000Y-12700000D03*
D12*
X-74375000Y-9180000D03*
D13*
X-68600000Y-7910000D03*
%TD*%
D10*
%TO.C,K25*%
X76200000Y-31750000D03*
D11*
X81280000Y-31750000D03*
D10*
X86360000Y-31750000D03*
D12*
X78025000Y-28230000D03*
D13*
X83800000Y-26960000D03*
%TD*%
D10*
%TO.C,K59*%
X152400000Y-69850000D03*
D11*
X157480000Y-69850000D03*
D10*
X162560000Y-69850000D03*
D12*
X154225000Y-66330000D03*
D13*
X160000000Y-65060000D03*
%TD*%
D10*
%TO.C,K38*%
X38100000Y-50800000D03*
D11*
X43180000Y-50800000D03*
D10*
X48260000Y-50800000D03*
D12*
X39925000Y-47280000D03*
D13*
X45700000Y-46010000D03*
%TD*%
D10*
%TO.C,K49*%
X-38100000Y-69850000D03*
D11*
X-33020000Y-69850000D03*
D10*
X-27940000Y-69850000D03*
D12*
X-36275000Y-66330000D03*
D13*
X-30500000Y-65060000D03*
%TD*%
D10*
%TO.C,K16*%
X-95250000Y-31750000D03*
D11*
X-90170000Y-31750000D03*
D10*
X-85090000Y-31750000D03*
D12*
X-93425000Y-28230000D03*
D13*
X-87650000Y-26960000D03*
%TD*%
D10*
%TO.C,K29*%
X152400000Y-31750000D03*
D11*
X157480000Y-31750000D03*
D10*
X162560000Y-31750000D03*
D12*
X154225000Y-28230000D03*
D13*
X160000000Y-26960000D03*
%TD*%
D10*
%TO.C,K42*%
X114300000Y-50800000D03*
D11*
X119380000Y-50800000D03*
D10*
X124460000Y-50800000D03*
D12*
X116125000Y-47280000D03*
D13*
X121900000Y-46010000D03*
%TD*%
D10*
%TO.C,K21*%
X0Y-31750000D03*
D11*
X5080000Y-31750000D03*
D10*
X10160000Y-31750000D03*
D12*
X1825000Y-28230000D03*
D13*
X7600000Y-26960000D03*
%TD*%
D10*
%TO.C,K57*%
X114300000Y-69850000D03*
D11*
X119380000Y-69850000D03*
D10*
X124460000Y-69850000D03*
D12*
X116125000Y-66330000D03*
D13*
X121900000Y-65060000D03*
%TD*%
D10*
%TO.C,K32*%
X-76200000Y-50800000D03*
D11*
X-71120000Y-50800000D03*
D10*
X-66040000Y-50800000D03*
D12*
X-74375000Y-47280000D03*
D13*
X-68600000Y-46010000D03*
%TD*%
D10*
%TO.C,K12*%
X114300000Y-12700000D03*
D11*
X119380000Y-12700000D03*
D10*
X124460000Y-12700000D03*
D12*
X116125000Y-9180000D03*
D13*
X121900000Y-7910000D03*
%TD*%
D10*
%TO.C,K8*%
X38100000Y-12700000D03*
D11*
X43180000Y-12700000D03*
D10*
X48260000Y-12700000D03*
D12*
X39925000Y-9180000D03*
D13*
X45700000Y-7910000D03*
%TD*%
D10*
%TO.C,K14*%
X152400000Y-12700000D03*
D11*
X157480000Y-12700000D03*
D10*
X162560000Y-12700000D03*
D12*
X154225000Y-9180000D03*
D13*
X160000000Y-7910000D03*
%TD*%
D10*
%TO.C,K20*%
X-19050000Y-31750000D03*
D11*
X-13970000Y-31750000D03*
D10*
X-8890000Y-31750000D03*
D12*
X-17225000Y-28230000D03*
D13*
X-11450000Y-26960000D03*
%TD*%
D10*
%TO.C,K62*%
X-80930000Y-88977500D03*
D11*
X-75850000Y-88977500D03*
D10*
X-70770000Y-88977500D03*
D12*
X-79105000Y-85457500D03*
D13*
X-73330000Y-84187500D03*
%TD*%
D10*
%TO.C,K19*%
X-38100000Y-31750000D03*
D11*
X-33020000Y-31750000D03*
D10*
X-27940000Y-31750000D03*
D12*
X-36275000Y-28230000D03*
D13*
X-30500000Y-26960000D03*
%TD*%
D10*
%TO.C,K3*%
X-57150000Y-12700000D03*
D11*
X-52070000Y-12700000D03*
D10*
X-46990000Y-12700000D03*
D12*
X-55325000Y-9180000D03*
D13*
X-49550000Y-7910000D03*
%TD*%
D10*
%TO.C,K55*%
X76200000Y-69850000D03*
D11*
X81280000Y-69850000D03*
D10*
X86360000Y-69850000D03*
D12*
X78025000Y-66330000D03*
D13*
X83800000Y-65060000D03*
%TD*%
D10*
%TO.C,K70*%
X171450000Y-88900000D03*
D11*
X176530000Y-88900000D03*
D10*
X181610000Y-88900000D03*
D12*
X173275000Y-85380000D03*
D13*
X179050000Y-84110000D03*
%TD*%
D10*
%TO.C,K44*%
X152400000Y-50800000D03*
D11*
X157480000Y-50800000D03*
D10*
X162560000Y-50800000D03*
D12*
X154225000Y-47280000D03*
D13*
X160000000Y-46010000D03*
%TD*%
D10*
%TO.C,K43*%
X133350000Y-50800000D03*
D11*
X138430000Y-50800000D03*
D10*
X143510000Y-50800000D03*
D12*
X135175000Y-47280000D03*
D13*
X140950000Y-46010000D03*
%TD*%
D10*
%TO.C,K40*%
X76200000Y-50800000D03*
D11*
X81280000Y-50800000D03*
D10*
X86360000Y-50800000D03*
D12*
X78025000Y-47280000D03*
D13*
X83800000Y-46010000D03*
%TD*%
D10*
%TO.C,K4*%
X-38100000Y-12700000D03*
D11*
X-33020000Y-12700000D03*
D10*
X-27940000Y-12700000D03*
D12*
X-36275000Y-9180000D03*
D13*
X-30500000Y-7910000D03*
%TD*%
D10*
%TO.C,K64*%
X-42850000Y-88977500D03*
D11*
X-37770000Y-88977500D03*
D10*
X-32690000Y-88977500D03*
D12*
X-41025000Y-85457500D03*
D13*
X-35250000Y-84187500D03*
%TD*%
D10*
%TO.C,K41*%
X95250000Y-50800000D03*
D11*
X100330000Y-50800000D03*
D10*
X105410000Y-50800000D03*
D12*
X97075000Y-47280000D03*
D13*
X102850000Y-46010000D03*
%TD*%
D10*
%TO.C,K53*%
X38100000Y-69850000D03*
D11*
X43180000Y-69850000D03*
D10*
X48260000Y-69850000D03*
D12*
X39925000Y-66330000D03*
D13*
X45700000Y-65060000D03*
%TD*%
D10*
%TO.C,K56*%
X95250000Y-69850000D03*
D11*
X100330000Y-69850000D03*
D10*
X105410000Y-69850000D03*
D12*
X97075000Y-66330000D03*
D13*
X102850000Y-65060000D03*
%TD*%
D10*
%TO.C,K58*%
X133350000Y-69850000D03*
D11*
X138430000Y-69850000D03*
D10*
X143510000Y-69850000D03*
D12*
X135175000Y-66330000D03*
D13*
X140950000Y-65060000D03*
%TD*%
D10*
%TO.C,K34*%
X-38100000Y-50800000D03*
D11*
X-33020000Y-50800000D03*
D10*
X-27940000Y-50800000D03*
D12*
X-36275000Y-47280000D03*
D13*
X-30500000Y-46010000D03*
%TD*%
D10*
%TO.C,K22*%
X19050000Y-31750000D03*
D11*
X24130000Y-31750000D03*
D10*
X29210000Y-31750000D03*
D12*
X20875000Y-28230000D03*
D13*
X26650000Y-26960000D03*
%TD*%
D15*
%TO.C,D6*%
X1425000Y-16968750D03*
D16*
X3750000Y-16968750D03*
X6900000Y-16968750D03*
D17*
X9225000Y-16968750D03*
%TD*%
D15*
%TO.C,D54*%
X58443750Y-74062500D03*
D16*
X60768750Y-74062500D03*
X63918750Y-74062500D03*
D17*
X66243750Y-74062500D03*
%TD*%
D15*
%TO.C,D4*%
X-37068750Y-16968750D03*
D16*
X-34743750Y-16968750D03*
X-31593750Y-16968750D03*
D17*
X-29268750Y-16968750D03*
%TD*%
D15*
%TO.C,D1*%
X-93825000Y-16968750D03*
D16*
X-91500000Y-16968750D03*
X-88350000Y-16968750D03*
D17*
X-86025000Y-16968750D03*
%TD*%
D15*
%TO.C,D40*%
X77175000Y-55031250D03*
D16*
X79500000Y-55031250D03*
X82650000Y-55031250D03*
D17*
X84975000Y-55031250D03*
%TD*%
D15*
%TO.C,D13*%
X134606250Y-16968750D03*
D16*
X136931250Y-16968750D03*
X140081250Y-16968750D03*
D17*
X142406250Y-16968750D03*
%TD*%
D15*
%TO.C,D32*%
X-75056250Y-55031250D03*
D16*
X-72731250Y-55031250D03*
X-69581250Y-55031250D03*
D17*
X-67256250Y-55031250D03*
%TD*%
D15*
%TO.C,D59*%
X153731250Y-74062500D03*
D16*
X156056250Y-74062500D03*
X159206250Y-74062500D03*
D17*
X161531250Y-74062500D03*
%TD*%
D15*
%TO.C,D56*%
X96412500Y-74062500D03*
D16*
X98737500Y-74062500D03*
X101887500Y-74062500D03*
D17*
X104212500Y-74062500D03*
%TD*%
D15*
%TO.C,D12*%
X115556250Y-16968750D03*
D16*
X117881250Y-16968750D03*
X121031250Y-16968750D03*
D17*
X123356250Y-16968750D03*
%TD*%
D15*
%TO.C,D8*%
X39527885Y-16968750D03*
D16*
X41852885Y-16968750D03*
X45002885Y-16968750D03*
D17*
X47327885Y-16968750D03*
%TD*%
D15*
%TO.C,D5*%
X-17943750Y-16968750D03*
D16*
X-15618750Y-16968750D03*
X-12468750Y-16968750D03*
D17*
X-10143750Y-16968750D03*
%TD*%
D15*
%TO.C,D37*%
X20446154Y-55031250D03*
D16*
X22771154Y-55031250D03*
X25921154Y-55031250D03*
D17*
X28246154Y-55031250D03*
%TD*%
D15*
%TO.C,D26*%
X96412500Y-36281250D03*
D16*
X98737500Y-36281250D03*
X101887500Y-36281250D03*
D17*
X104212500Y-36281250D03*
%TD*%
D15*
%TO.C,D73*%
X134606250Y-93093750D03*
D16*
X136931250Y-93093750D03*
X140081250Y-93093750D03*
D17*
X142406250Y-93093750D03*
%TD*%
D15*
%TO.C,D47*%
X-75056250Y-74062500D03*
D16*
X-72731250Y-74062500D03*
X-69581250Y-74062500D03*
D17*
X-67256250Y-74062500D03*
%TD*%
D15*
%TO.C,D7*%
X20446154Y-16968750D03*
D16*
X22771154Y-16968750D03*
X25921154Y-16968750D03*
D17*
X28246154Y-16968750D03*
%TD*%
D15*
%TO.C,D16*%
X-93825000Y-36281250D03*
D16*
X-91500000Y-36281250D03*
X-88350000Y-36281250D03*
D17*
X-86025000Y-36281250D03*
%TD*%
D15*
%TO.C,D27*%
X115556250Y-36281250D03*
D16*
X117881250Y-36281250D03*
X121031250Y-36281250D03*
D17*
X123356250Y-36281250D03*
%TD*%
D15*
%TO.C,D24*%
X58443750Y-36281250D03*
D16*
X60768750Y-36281250D03*
X63918750Y-36281250D03*
D17*
X66243750Y-36281250D03*
%TD*%
D18*
%TO.C,U1*%
X200240000Y-11933750D03*
D19*
X199940000Y-14963750D03*
X195090000Y-14963750D03*
D18*
X194790000Y-11933750D03*
D20*
X206405000Y-11803750D03*
D21*
X207305000Y-11803750D03*
D20*
X206405000Y-14343750D03*
D21*
X207305000Y-14343750D03*
D22*
X206405000Y-16883750D03*
D21*
X207305000Y-16883750D03*
D20*
X206405000Y-19423750D03*
D21*
X207305000Y-19423750D03*
D20*
X206405000Y-21963750D03*
D21*
X207305000Y-21963750D03*
D20*
X206405000Y-24503750D03*
D21*
X207305000Y-24503750D03*
D20*
X206405000Y-27043750D03*
D21*
X207305000Y-27043750D03*
D22*
X206405000Y-29583750D03*
D21*
X207305000Y-29583750D03*
D20*
X206405000Y-32123750D03*
D21*
X207305000Y-32123750D03*
D20*
X206405000Y-34663750D03*
D21*
X207305000Y-34663750D03*
D20*
X206405000Y-37203750D03*
D21*
X207305000Y-37203750D03*
D20*
X206405000Y-39743750D03*
D21*
X207305000Y-39743750D03*
D22*
X206405000Y-42283750D03*
D21*
X207305000Y-42283750D03*
D20*
X206405000Y-44823750D03*
D21*
X207305000Y-44823750D03*
D20*
X206405000Y-47363750D03*
D21*
X207305000Y-47363750D03*
D20*
X206405000Y-49903750D03*
D21*
X207305000Y-49903750D03*
D20*
X206405000Y-52443750D03*
D21*
X207305000Y-52443750D03*
D22*
X206405000Y-54983750D03*
D21*
X207305000Y-54983750D03*
D20*
X206405000Y-57523750D03*
D21*
X207305000Y-57523750D03*
D20*
X206405000Y-60063750D03*
D21*
X207305000Y-60063750D03*
D20*
X188625000Y-60063750D03*
D21*
X187725000Y-60063750D03*
D20*
X188625000Y-57523750D03*
D21*
X187725000Y-57523750D03*
D22*
X188625000Y-54983750D03*
D21*
X187725000Y-54983750D03*
D20*
X188625000Y-52443750D03*
D21*
X187725000Y-52443750D03*
D20*
X188625000Y-49903750D03*
D21*
X187725000Y-49903750D03*
D20*
X188625000Y-47363750D03*
D21*
X187725000Y-47363750D03*
D20*
X188625000Y-44823750D03*
D21*
X187725000Y-44823750D03*
D22*
X188625000Y-42283750D03*
D21*
X187725000Y-42283750D03*
D20*
X188625000Y-39743750D03*
D21*
X187725000Y-39743750D03*
D20*
X188625000Y-37203750D03*
D21*
X187725000Y-37203750D03*
D20*
X188625000Y-34663750D03*
D21*
X187725000Y-34663750D03*
D20*
X188625000Y-32123750D03*
D21*
X187725000Y-32123750D03*
D22*
X188625000Y-29583750D03*
D21*
X187725000Y-29583750D03*
D20*
X188625000Y-27043750D03*
D21*
X187725000Y-27043750D03*
D20*
X188625000Y-24503750D03*
D21*
X187725000Y-24503750D03*
D20*
X188625000Y-21963750D03*
D21*
X187725000Y-21963750D03*
D20*
X188625000Y-19423750D03*
D21*
X187725000Y-19423750D03*
D22*
X188625000Y-16883750D03*
D21*
X187725000Y-16883750D03*
D20*
X188625000Y-14343750D03*
D21*
X187725000Y-14343750D03*
D20*
X188625000Y-11803750D03*
D21*
X187725000Y-11803750D03*
D20*
X200055000Y-59833750D03*
D23*
X200055000Y-60733750D03*
D22*
X197515000Y-59833750D03*
D23*
X197515000Y-60733750D03*
D20*
X194975000Y-59833750D03*
D23*
X194975000Y-60733750D03*
%TD*%
D15*
%TO.C,D22*%
X20446154Y-36281250D03*
D16*
X22771154Y-36281250D03*
X25921154Y-36281250D03*
D17*
X28246154Y-36281250D03*
%TD*%
D15*
%TO.C,D33*%
X-56025000Y-55031250D03*
D16*
X-53700000Y-55031250D03*
X-50550000Y-55031250D03*
D17*
X-48225000Y-55031250D03*
%TD*%
D15*
%TO.C,D15*%
X172425000Y-16968750D03*
D16*
X174750000Y-16968750D03*
X177900000Y-16968750D03*
D17*
X180225000Y-16968750D03*
%TD*%
D15*
%TO.C,D42*%
X115556250Y-55031250D03*
D16*
X117881250Y-55031250D03*
X121031250Y-55031250D03*
D17*
X123356250Y-55031250D03*
%TD*%
D15*
%TO.C,D58*%
X134606250Y-74062500D03*
D16*
X136931250Y-74062500D03*
X140081250Y-74062500D03*
D17*
X142406250Y-74062500D03*
%TD*%
D15*
%TO.C,D20*%
X-17943750Y-36281250D03*
D16*
X-15618750Y-36281250D03*
X-12468750Y-36281250D03*
D17*
X-10143750Y-36281250D03*
%TD*%
D15*
%TO.C,D34*%
X-37068750Y-55031250D03*
D16*
X-34743750Y-55031250D03*
X-31593750Y-55031250D03*
D17*
X-29268750Y-55031250D03*
%TD*%
D15*
%TO.C,D35*%
X-17943750Y-55031250D03*
D16*
X-15618750Y-55031250D03*
X-12468750Y-55031250D03*
D17*
X-10143750Y-55031250D03*
%TD*%
D15*
%TO.C,D2*%
X-74962500Y-16968750D03*
D16*
X-72637500Y-16968750D03*
X-69487500Y-16968750D03*
D17*
X-67162500Y-16968750D03*
%TD*%
D15*
%TO.C,D39*%
X58443750Y-55031250D03*
D16*
X60768750Y-55031250D03*
X63918750Y-55031250D03*
D17*
X66243750Y-55031250D03*
%TD*%
D15*
%TO.C,D29*%
X153731250Y-36281250D03*
D16*
X156056250Y-36281250D03*
X159206250Y-36281250D03*
D17*
X161531250Y-36281250D03*
%TD*%
D15*
%TO.C,D51*%
X1425000Y-74062500D03*
D16*
X3750000Y-74062500D03*
X6900000Y-74062500D03*
D17*
X9225000Y-74062500D03*
%TD*%
D15*
%TO.C,D21*%
X1425000Y-36281250D03*
D16*
X3750000Y-36281250D03*
X6900000Y-36281250D03*
D17*
X9225000Y-36281250D03*
%TD*%
D15*
%TO.C,D31*%
X-93825000Y-55031250D03*
D16*
X-91500000Y-55031250D03*
X-88350000Y-55031250D03*
D17*
X-86025000Y-55031250D03*
%TD*%
D15*
%TO.C,D10*%
X77175000Y-16968750D03*
D16*
X79500000Y-16968750D03*
X82650000Y-16968750D03*
D17*
X84975000Y-16968750D03*
%TD*%
D15*
%TO.C,D62*%
X-79668750Y-93187500D03*
D16*
X-77343750Y-93187500D03*
X-74193750Y-93187500D03*
D17*
X-71868750Y-93187500D03*
%TD*%
D15*
%TO.C,D45*%
X172425000Y-55031250D03*
D16*
X174750000Y-55031250D03*
X177900000Y-55031250D03*
D17*
X180225000Y-55031250D03*
%TD*%
D15*
%TO.C,D38*%
X39527885Y-55031250D03*
D16*
X41852885Y-55031250D03*
X45002885Y-55031250D03*
D17*
X47327885Y-55031250D03*
%TD*%
D15*
%TO.C,D52*%
X20446154Y-74062500D03*
D16*
X22771154Y-74062500D03*
X25921154Y-74062500D03*
D17*
X28246154Y-74062500D03*
%TD*%
D15*
%TO.C,D63*%
X-60262500Y-93093750D03*
D16*
X-57937500Y-93093750D03*
X-54787500Y-93093750D03*
D17*
X-52462500Y-93093750D03*
%TD*%
D15*
%TO.C,D41*%
X96412500Y-55031250D03*
D16*
X98737500Y-55031250D03*
X101887500Y-55031250D03*
D17*
X104212500Y-55031250D03*
%TD*%
D15*
%TO.C,D74*%
X153731250Y-93093750D03*
D16*
X156056250Y-93093750D03*
X159206250Y-93093750D03*
D17*
X161531250Y-93093750D03*
%TD*%
D15*
%TO.C,D30*%
X172425000Y-36281250D03*
D16*
X174750000Y-36281250D03*
X177900000Y-36281250D03*
D17*
X180225000Y-36281250D03*
%TD*%
D15*
%TO.C,D48*%
X-56025000Y-74062500D03*
D16*
X-53700000Y-74062500D03*
X-50550000Y-74062500D03*
D17*
X-48225000Y-74062500D03*
%TD*%
D15*
%TO.C,D17*%
X-75056250Y-36281250D03*
D16*
X-72731250Y-36281250D03*
X-69581250Y-36281250D03*
D17*
X-67256250Y-36281250D03*
%TD*%
D15*
%TO.C,D49*%
X-37068750Y-74062500D03*
D16*
X-34743750Y-74062500D03*
X-31593750Y-74062500D03*
D17*
X-29268750Y-74062500D03*
%TD*%
D15*
%TO.C,D75*%
X172425000Y-93093750D03*
D16*
X174750000Y-93093750D03*
X177900000Y-93093750D03*
D17*
X180225000Y-93093750D03*
%TD*%
D15*
%TO.C,D64*%
X-41118750Y-93000000D03*
D16*
X-38793750Y-93000000D03*
X-35643750Y-93000000D03*
D17*
X-33318750Y-93000000D03*
%TD*%
D15*
%TO.C,D46*%
X-93825000Y-74062500D03*
D16*
X-91500000Y-74062500D03*
X-88350000Y-74062500D03*
D17*
X-86025000Y-74062500D03*
%TD*%
D15*
%TO.C,D14*%
X153731250Y-16968750D03*
D16*
X156056250Y-16968750D03*
X159206250Y-16968750D03*
D17*
X161531250Y-16968750D03*
%TD*%
D15*
%TO.C,D55*%
X77175000Y-74062500D03*
D16*
X79500000Y-74062500D03*
X82650000Y-74062500D03*
D17*
X84975000Y-74062500D03*
%TD*%
D15*
%TO.C,D71*%
X96412500Y-93093750D03*
D16*
X98737500Y-93093750D03*
X101887500Y-93093750D03*
D17*
X104212500Y-93093750D03*
%TD*%
D15*
%TO.C,D44*%
X153731250Y-55031250D03*
D16*
X156056250Y-55031250D03*
X159206250Y-55031250D03*
D17*
X161531250Y-55031250D03*
%TD*%
D15*
%TO.C,D68*%
X27337500Y-93093750D03*
D16*
X29662500Y-93093750D03*
X32812500Y-93093750D03*
D17*
X35137500Y-93093750D03*
%TD*%
D15*
%TO.C,D43*%
X134606250Y-55031250D03*
D16*
X136931250Y-55031250D03*
X140081250Y-55031250D03*
D17*
X142406250Y-55031250D03*
%TD*%
D15*
%TO.C,D11*%
X96412500Y-16968750D03*
D16*
X98737500Y-16968750D03*
X101887500Y-16968750D03*
D17*
X104212500Y-16968750D03*
%TD*%
D15*
%TO.C,D60*%
X172425000Y-74062500D03*
D16*
X174750000Y-74062500D03*
X177900000Y-74062500D03*
D17*
X180225000Y-74062500D03*
%TD*%
D15*
%TO.C,D25*%
X77175000Y-36281250D03*
D16*
X79500000Y-36281250D03*
X82650000Y-36281250D03*
D17*
X84975000Y-36281250D03*
%TD*%
D15*
%TO.C,D57*%
X115556250Y-74062500D03*
D16*
X117881250Y-74062500D03*
X121031250Y-74062500D03*
D17*
X123356250Y-74062500D03*
%TD*%
D15*
%TO.C,D3*%
X-56025000Y-16968750D03*
D16*
X-53700000Y-16968750D03*
X-50550000Y-16968750D03*
D17*
X-48225000Y-16968750D03*
%TD*%
D15*
%TO.C,D50*%
X-17943750Y-74062500D03*
D16*
X-15618750Y-74062500D03*
X-12468750Y-74062500D03*
D17*
X-10143750Y-74062500D03*
%TD*%
D15*
%TO.C,D28*%
X134606250Y-36281250D03*
D16*
X136931250Y-36281250D03*
X140081250Y-36281250D03*
D17*
X142406250Y-36281250D03*
%TD*%
D15*
%TO.C,D18*%
X-56025000Y-36281250D03*
D16*
X-53700000Y-36281250D03*
X-50550000Y-36281250D03*
D17*
X-48225000Y-36281250D03*
%TD*%
D15*
%TO.C,D19*%
X-37068750Y-36281250D03*
D16*
X-34743750Y-36281250D03*
X-31593750Y-36281250D03*
D17*
X-29268750Y-36281250D03*
%TD*%
D15*
%TO.C,D36*%
X1425000Y-55031250D03*
D16*
X3750000Y-55031250D03*
X6900000Y-55031250D03*
D17*
X9225000Y-55031250D03*
%TD*%
D15*
%TO.C,D9*%
X58443750Y-16968750D03*
D16*
X60768750Y-16968750D03*
X63918750Y-16968750D03*
D17*
X66243750Y-16968750D03*
%TD*%
D15*
%TO.C,D72*%
X115556250Y-93093750D03*
D16*
X117881250Y-93093750D03*
X121031250Y-93093750D03*
D17*
X123356250Y-93093750D03*
%TD*%
D15*
%TO.C,D23*%
X39527885Y-36281250D03*
D16*
X41852885Y-36281250D03*
X45002885Y-36281250D03*
D17*
X47327885Y-36281250D03*
%TD*%
D15*
%TO.C,D53*%
X39527885Y-74062500D03*
D16*
X41852885Y-74062500D03*
X45002885Y-74062500D03*
D17*
X47327885Y-74062500D03*
%TD*%
M02*
